<svg width="762" height="1024" viewBox="0 0 762 1024" fill="none" xmlns="http://www.w3.org/2000/svg">
<path d="M97.665 455.725C35.6479 534.969 -0.885743 638.798 0.0163234 736.921C1.14391 847.774 59.1017 964.555 142.543 1038.97C184.489 1076.51 236.809 1104.6 294.315 1109.21C371.893 1115.58 425.341 1081.99 495.476 1054.77C508.782 1049.73 522.087 1045.12 536.069 1041.82C626.05 1020.97 718.061 1057.19 808.719 1074.31C842.095 1080.68 877.05 1084.19 909.525 1074.75C943.352 1064.87 971.993 1041.38 992.289 1013.07C1025.21 967.409 1038.29 910.555 1038.97 854.799C1039.87 789.384 1019.13 726.823 1019.13 662.067C1019.13 593.579 1017.77 525.091 1015.29 456.822C1010.56 321.822 1000.41 187.041 981.916 53.1385C980.111 40.4068 977.856 27.0165 969.061 17.5775C961.394 9.45551 950.118 5.72379 939.293 2.65062C839.389 -27.8616 735.426 -44.3251 630.561 -49.1544C530.431 -53.7641 408.427 -65.1788 323.407 -1.52013C301.306 14.9433 283.491 38.2117 277.853 64.9922C270.411 101.212 287.55 131.724 296.345 165.749C304.915 199.114 302.66 234.895 288.001 266.285C255.752 335.871 181.106 367.261 129.237 419.725C118.187 430.7 107.588 442.993 97.665 455.725Z" fill="url(#paint0_linear)"/>
<defs>
<linearGradient id="paint0_linear" x1="138.654" y1="977.345" x2="812.309" y2="59.3267" gradientUnits="userSpaceOnUse">
<stop stop-color="#FFA183"/>
<stop offset="1" stop-color="#F7455E"/>
</linearGradient>
</defs>
</svg>
