<svg width="155" height="155" viewBox="0 0 155 155" fill="none" xmlns="http://www.w3.org/2000/svg">
<circle cx="77.5" cy="77.5" r="77.5" fill="#F2F2F2"/>
<path d="M77.2675 73.5756C77.338 73.5756 77.4086 73.5756 77.4933 73.5756C77.5215 73.5756 77.5497 73.5756 77.578 73.5756C77.6203 73.5756 77.6768 73.5756 77.7191 73.5756C81.8541 73.5039 85.1989 72.0283 87.6686 69.2059C93.1021 62.988 92.1988 52.3288 92.1 51.3116C91.7472 43.6754 88.1908 40.0221 85.2553 38.3172C83.0678 37.0421 80.5134 36.3544 77.6626 36.2971H77.5639C77.5497 36.2971 77.5215 36.2971 77.5074 36.2971H77.4227C75.8562 36.2971 72.7796 36.555 69.83 38.2599C66.8663 39.9648 63.2535 43.6181 62.9007 51.3116C62.8019 52.3288 61.8986 62.988 67.3321 69.2059C69.7877 72.0283 73.1324 73.5039 77.2675 73.5756ZM66.6688 51.6698C66.6688 51.6268 66.6829 51.5838 66.6829 51.5552C67.1486 41.2828 74.332 40.1797 77.4086 40.1797H77.4651C77.4933 40.1797 77.5356 40.1797 77.578 40.1797C81.3884 40.2656 87.8662 41.8416 88.3037 51.5552C88.3037 51.5982 88.3037 51.6412 88.3178 51.6698C88.3319 51.7701 89.3198 61.5124 84.8319 66.6414C83.0537 68.6758 80.6828 69.6787 77.5639 69.7073C77.5356 69.7073 77.5215 69.7073 77.4933 69.7073C77.4651 69.7073 77.451 69.7073 77.4227 69.7073C74.3179 69.6787 71.9328 68.6758 70.1687 66.6414C65.695 61.541 66.6547 51.7558 66.6688 51.6698Z" fill="white"/>
<path d="M106.927 92.1211C106.927 92.1062 106.927 92.0913 106.927 92.0764C106.927 91.9571 106.912 91.8377 106.912 91.7035C106.826 88.7507 106.64 81.8459 100.421 79.6387C100.378 79.6238 100.32 79.6089 100.278 79.5939C93.8147 77.8789 88.441 74.0015 88.3837 73.9567C87.5096 73.3155 86.3059 73.5392 85.6897 74.4489C85.0735 75.3586 85.2884 76.6113 86.1626 77.2526C86.4062 77.4315 92.1095 81.5625 99.2458 83.4714C102.585 84.7092 102.957 88.4226 103.058 91.8228C103.058 91.9571 103.058 92.0764 103.072 92.1957C103.086 93.5379 103 95.6108 102.771 96.8039C100.449 98.1759 91.35 102.918 77.5073 102.918C63.722 102.918 54.5652 98.161 52.2294 96.789C52.0001 95.5959 51.8998 93.523 51.9285 92.1808C51.9285 92.0615 51.9428 91.9421 51.9428 91.8079C52.0431 88.4077 52.4157 84.6943 55.7545 83.4565C62.8908 81.5476 68.5941 77.4017 68.8377 77.2376C69.7119 76.5964 69.9268 75.3437 69.3106 74.434C68.6944 73.5242 67.4907 73.3005 66.6166 73.9418C66.5593 73.9866 61.2142 77.864 54.7228 79.579C54.6655 79.5939 54.6225 79.6089 54.5795 79.6238C48.3603 81.8459 48.174 88.7507 48.0881 91.6886C48.0881 91.8228 48.0881 91.9421 48.0737 92.0615C48.0737 92.0764 48.0737 92.0913 48.0737 92.1062C48.0594 92.8817 48.0451 96.8635 48.8045 98.8619C48.9478 99.2497 49.2058 99.5777 49.5497 99.8014C49.9796 100.1 60.2828 106.93 77.5216 106.93C94.7605 106.93 105.064 100.085 105.494 99.8014C105.823 99.5777 106.095 99.2497 106.239 98.8619C106.955 96.8784 106.941 92.8966 106.927 92.1211Z" fill="white"/>
</svg>
