<svg width="11" height="8" viewBox="0 0 11 8" fill="none" xmlns="http://www.w3.org/2000/svg">
<path d="M0.126923 4.4C0.0423077 4.32 0 4.2 0 4.12C0 4.04 0.0423077 3.92 0.126923 3.84L0.719231 3.28C0.888462 3.12 1.14231 3.12 1.31154 3.28L1.35385 3.32L3.68077 5.68C3.76538 5.76 3.89231 5.76 3.97692 5.68L9.64615 0.12H9.68846C9.85769 -0.04 10.1115 -0.04 10.2808 0.12L10.8731 0.68C11.0423 0.84 11.0423 1.08 10.8731 1.24L4.10385 7.88C4.01923 7.96 3.93462 8 3.80769 8C3.68077 8 3.59615 7.96 3.51154 7.88L0.211538 4.52L0.126923 4.4Z" fill="#E24F5B"/>
</svg>
