<svg width="27" height="27" viewBox="0 0 27 27" fill="none" xmlns="http://www.w3.org/2000/svg">
<path d="M7.965 10.935L6.075 12.825L12.15 18.9L25.65 5.4L23.76 3.51L12.15 15.12L7.965 10.935ZM24.3 13.5C24.3 19.44 19.44 24.3 13.5 24.3C7.56 24.3 2.7 19.44 2.7 13.5C2.7 7.56 7.56 2.7 13.5 2.7C14.58 2.7 15.525 2.835 16.47 3.105L18.6301 0.945C17.01 0.405 15.255 0 13.5 0C6.075 0 0 6.075 0 13.5C0 20.925 6.075 27 13.5 27C20.925 27 27 20.925 27 13.5H24.3Z" fill="#3C3C3C"/>
<path d="M6.07501 12.825L7.96501 10.935L12.15 15.12L23.76 3.51001L25.65 5.40001L12.15 18.9L6.07501 12.825Z" fill="#D73148"/>
</svg>
