<svg width="17" height="17" viewBox="0 0 17 17" fill="none" xmlns="http://www.w3.org/2000/svg">
<path d="M10.0055 8.37071L16.1226 2.25343C16.5026 1.87369 16.5026 1.25755 16.1226 0.877819C15.7425 0.497758 15.1271 0.497758 14.747 0.877819L8.62999 6.9951L2.51264 0.877819C2.13259 0.497758 1.51713 0.497758 1.13708 0.877819C0.75704 1.25755 0.75704 1.87369 1.13708 2.25343L7.25444 8.37071L1.13708 14.488C0.75704 14.8677 0.75704 15.4839 1.13708 15.8636C1.32711 16.0533 1.57615 16.1483 1.82486 16.1483C2.07358 16.1483 2.32262 16.0533 2.51264 15.8633L8.62999 9.746L14.747 15.8633C14.937 16.0533 15.1861 16.1483 15.4348 16.1483C15.6835 16.1483 15.9326 16.0533 16.1226 15.8633C16.5026 15.4835 16.5026 14.8674 16.1226 14.4877L10.0055 8.37071Z" fill="white"/>
</svg>
