<svg width="768" height="638" viewBox="0 0 768 638" fill="none" xmlns="http://www.w3.org/2000/svg">
<path fill-rule="evenodd" clip-rule="evenodd" d="M387.793 164.901C440.229 163.667 494.215 148.683 563.268 101.806C572.579 95.9185 581.501 90.183 590.142 84.629C674.245 30.5662 731.608 -6.30746 860 0.899278L860 491.349C860 495.979 856.539 500.137 851 503.14L851 621.349C851 630.621 836.955 638 820.101 638L-59.1016 638C-75.9553 638 -90.0001 630.621 -90.0001 621.349L-90 0.899197C39.9105 -6.30753 97.952 30.5662 183.05 84.6289C191.793 90.183 200.821 95.9184 210.242 101.806C280.112 148.683 334.737 163.667 387.793 164.901Z" fill="url(#paint0_linear)"/>
<defs>
<linearGradient id="paint0_linear" x1="18.3593" y1="85.1413" x2="609.114" y2="661.817" gradientUnits="userSpaceOnUse">
<stop stop-color="#FFA183"/>
<stop offset="1" stop-color="#F7455E"/>
</linearGradient>
</defs>
</svg>
