<svg width="1440" height="756" viewBox="0 0 1440 756" fill="none" xmlns="http://www.w3.org/2000/svg">
<path fill-rule="evenodd" clip-rule="evenodd" d="M693.505 273.368C604.804 271.711 513.66 247.129 396.789 168.741C381.169 158.983 366.2 149.476 351.705 140.27C210.616 50.6624 114.386 -10.4548 -101 1.49051L-101 814.402C-101 829.769 -77.7143 842 -49.7716 842L-24.3359 842C-21.8945 842.199 -19.4003 842.302 -16.8672 842.302L1423.87 842.302C1451.49 842.302 1474.5 830.067 1474.5 814.694L1474.5 1.49051C1261.62 -10.4587 1166.51 50.68 1027.06 140.322C1012.73 149.531 997.937 159.04 982.5 168.802C868.862 245.946 779.835 270.997 693.505 273.368Z" fill="url(#paint0_linear)"/>
<defs>
<linearGradient id="paint0_linear" x1="78.7055" y1="112.405" x2="842.912" y2="1049.5" gradientUnits="userSpaceOnUse">
<stop stop-color="#FFA183"/>
<stop offset="1" stop-color="#F7455E"/>
</linearGradient>
</defs>
</svg>
