<svg width="2048" height="1018" viewBox="0 0 2048 1018" fill="none" xmlns="http://www.w3.org/2000/svg">
<path fill-rule="evenodd" clip-rule="evenodd" d="M1969.19 1105C1968.96 1105 1968.73 1105 1968.49 1105L99.0015 1105L56.2046 1105C19.5474 1105 -11 1088.95 -11 1068.78L-11 1.95533C271.559 -13.7205 397.801 66.4876 582.893 184.085C601.907 196.166 621.542 208.642 642.032 221.448C794.088 323.473 912.946 356.045 1028.41 358.697C1142.55 356.045 1260.06 323.473 1410.39 221.448C1430.65 208.642 1450.06 196.166 1468.86 184.085C1651.84 66.4866 1776.65 -13.7205 2056 1.95533L2056 1068.78C2056 1088.95 2025.8 1105 1989.56 1105L1969.19 1105Z" fill="url(#paint0_linear)"/>
<defs>
<linearGradient id="paint0_linear" x1="224.767" y1="147.462" x2="1227.3" y2="1376.88" gradientUnits="userSpaceOnUse">
<stop stop-color="#FFA183"/>
<stop offset="1" stop-color="#F7455E"/>
</linearGradient>
</defs>
</svg>
