<svg width="320" height="547" viewBox="0 0 320 547" fill="none" xmlns="http://www.w3.org/2000/svg">
<path fill-rule="evenodd" clip-rule="evenodd" d="M372 225.758L372 539.51C372 543.681 365.597 547 357.913 547L-42.9136 547C-50.5972 547 -57 543.681 -57 539.51L-57 0.404444C2.22607 -2.83774 28.687 13.7501 67.4832 38.0705C71.4688 40.5685 75.5845 43.1486 79.8794 45.797C110.138 65.8283 134.125 72.9142 157.186 74.049C182.105 73.9982 207.512 67.6173 240.397 45.6925C244.652 43.05 248.729 40.4757 252.678 37.9826C291.112 13.7189 317.327 -2.83091 376 0.403468L376 220.527C376 222.573 374.465 224.415 372 225.758Z" fill="url(#paint0_linear)"/>
<defs>
<linearGradient id="paint0_linear" x1="-7.61095" y1="72.9971" x2="406.662" y2="287.982" gradientUnits="userSpaceOnUse">
<stop stop-color="#FE7F56"/>
<stop offset="1" stop-color="#F7455E"/>
</linearGradient>
</defs>
</svg>
