<svg width="48" height="42" viewBox="0 0 48 42" fill="none" xmlns="http://www.w3.org/2000/svg">
<path d="M47.5169 17.1563V16.3969C47.513 13.1373 44.7227 10.4959 41.2794 10.4922H35.4317C33.0633 10.4922 31.1434 8.6748 31.1434 6.4328C31.1434 4.1908 33.0633 2.37337 35.4317 2.37337H43.6185V0.897217H35.4317C32.2021 0.897217 29.584 3.37559 29.584 6.4328C29.584 9.49001 32.2021 11.9684 35.4317 11.9684H41.2794C43.862 11.9708 45.955 13.9521 45.9575 16.3969V17.1563C45.9639 19.311 45.0592 21.3785 43.4454 22.8978L42.8286 23.4817L34.7978 15.875C34.6512 15.7363 34.4523 15.6584 34.245 15.6588H3.07443C1.78258 15.6588 0.735352 16.6501 0.735352 17.873V39.2773C0.735352 40.5002 1.78258 41.4915 3.07443 41.4915H34.245C34.46 41.4914 34.6653 41.4073 34.8126 41.259L45.7283 30.2757C46.8904 29.1164 46.861 27.2905 45.662 26.1653L43.9303 24.526L44.5478 23.9415C46.4554 22.1461 47.5245 19.7027 47.5169 17.1563ZM44.5595 27.209C45.1587 27.7718 45.1734 28.6847 44.5923 29.2645L33.9074 40.0153H3.07443C2.64384 40.0153 2.29474 39.6849 2.29474 39.2773V17.873C2.29474 17.4654 2.64384 17.1349 3.07443 17.1349H33.9214L41.7261 24.5253L40.5145 25.6723C40.0393 25.4009 39.4953 25.2564 38.9403 25.2538C37.2179 25.2538 35.8215 26.5756 35.8215 28.2061C35.8215 29.8366 37.2179 31.1584 38.9403 31.1584C40.6627 31.1584 42.0591 29.8366 42.0591 28.2061C42.0563 27.6807 41.9036 27.1658 41.617 26.7159L42.8278 25.5697L44.5595 27.209ZM39.4915 28.7279L40.4412 27.8289C40.4781 27.9516 40.4978 28.0785 40.4997 28.2061C40.4997 29.0214 39.8016 29.6823 38.9403 29.6823C38.079 29.6823 37.3809 29.0214 37.3809 28.2061C37.3809 27.3908 38.079 26.7299 38.9403 26.7299C39.0751 26.7317 39.2091 26.7503 39.3387 26.7853L38.3891 27.6843L39.4915 28.7279Z" fill="white"/>
<path d="M10.4692 27.7683H7.83412V24.0819H11.2324L11.0654 22.8855H6.68945V33.8798H7.83412V28.9485H10.6123L10.4692 27.7683Z" fill="white"/>
<path d="M12.5465 33.8798H13.6911V29.4821H14.7524C15.118 29.4821 15.3684 29.4659 15.5035 29.4336L17.3159 33.8798H18.556L16.5171 29.0294C16.9463 28.7815 17.2881 28.415 17.5425 27.9299C17.7969 27.4341 17.928 26.8413 17.936 26.1514C17.936 25.052 17.6538 24.2328 17.0894 23.6939C16.525 23.155 15.7857 22.8855 14.8716 22.8855H12.5465V33.8798ZM14.8597 24.1951C15.4717 24.1951 15.9368 24.3514 16.2547 24.664C16.5806 24.9658 16.7436 25.4832 16.7436 26.2161C16.7357 26.9167 16.5528 27.4287 16.1951 27.7521C15.8454 28.0647 15.3803 28.221 14.8 28.221H13.6911V24.1951H14.8597Z" fill="white"/>
<path d="M24.8936 33.8798L24.7386 32.6672H20.8873V28.8839H23.7966L23.6416 27.6874H20.8873V24.0819H24.4643L24.3093 22.8855H19.7426V33.8798H24.8936Z" fill="white"/>
<path d="M31.3561 33.8798L31.2011 32.6672H27.3498V28.8839H30.2591L30.1041 27.6874H27.3498V24.0819H30.9269L30.7719 22.8855H26.2051V33.8798H31.3561Z" fill="white"/>
</svg>
