<svg width="42" height="56" viewBox="0 0 42 56" fill="none" xmlns="http://www.w3.org/2000/svg">
<path d="M21.4999 30.0002C18.4672 30.0002 16 32.4347 16 35.4271C16 36.9112 16.6251 38.3461 17.7166 39.3673V44.267C17.7166 46.3255 19.4138 48.0002 21.5001 48.0002C23.5863 48.0002 25.2836 46.3255 25.2836 44.267V39.3673C26.3744 38.3467 27 36.9115 27 35.4271C26.9998 32.4347 24.5324 30.0002 21.4999 30.0002ZM23.446 37.4644C22.9209 37.9526 22.6197 38.635 22.6197 39.3367V44.267C22.6197 44.8764 22.1175 45.3719 21.4999 45.3719C20.8825 45.3719 20.3801 44.8764 20.3801 44.267V39.3367C20.3801 38.6351 20.079 37.9528 19.5542 37.4647C18.9798 36.9304 18.6635 36.2068 18.6635 35.4271C18.6635 33.8841 19.9359 32.6285 21.4997 32.6285C23.0635 32.6285 24.336 33.8841 24.336 35.4271C24.3362 36.2068 24.0199 36.9304 23.446 37.4644Z" fill="white"/>
<path d="M37.8302 22.9552H33.6607V12.2579C33.6607 5.49884 27.981 0 21.0001 0C14.019 0 8.33945 5.49884 8.33945 12.2579V22.9552H4.16984C1.87056 22.9552 0 24.7664 0 26.9924V51.9629C0 54.189 1.87056 56 4.16984 56H37.8302C40.1294 56 42 54.189 42 51.9629V26.9925C42 24.7664 40.1294 22.9552 37.8302 22.9552ZM11.1192 12.2579C11.1192 6.98306 15.5517 2.69151 21 2.69151C26.4482 2.69151 30.8807 6.98306 30.8807 12.2579V22.9552H11.1192V12.2579ZM39.2201 51.963C39.2201 52.705 38.5965 53.3087 37.8302 53.3087H4.16984C3.40345 53.3087 2.77985 52.7051 2.77985 51.963V26.9925C2.77985 26.2505 3.40345 25.6467 4.16984 25.6467H37.8302C38.5965 25.6467 39.2201 26.2504 39.2201 26.9925V51.963Z" fill="white"/>
</svg>
