<svg width="22" height="22" viewBox="0 0 22 22" fill="none" xmlns="http://www.w3.org/2000/svg">
<path d="M11.0001 11.8882C9.79628 11.8882 8.81689 12.8676 8.81689 14.0714C8.81689 14.6685 9.06504 15.2458 9.49829 15.6566V17.6278C9.49829 18.4559 10.172 19.1297 11.0002 19.1297C11.8283 19.1297 12.5021 18.4559 12.5021 17.6278V15.6566C12.9351 15.246 13.1834 14.6686 13.1834 14.0714C13.1833 12.8676 12.2039 11.8882 11.0001 11.8882ZM11.7726 14.8911C11.5642 15.0875 11.4446 15.362 11.4446 15.6443V17.6278C11.4446 17.8729 11.2453 18.0723 11.0001 18.0723C10.755 18.0723 10.5556 17.8729 10.5556 17.6278V15.6443C10.5556 15.362 10.4361 15.0875 10.2278 14.8912C9.99974 14.6762 9.87418 14.3851 9.87418 14.0714C9.87418 13.4507 10.3793 12.9456 11.0001 12.9456C11.6208 12.9456 12.1259 13.4507 12.1259 14.0714C12.126 14.3851 12.0005 14.6762 11.7726 14.8911Z" fill="black"/>
<path d="M17.4016 9.01811H15.8157V4.81559C15.8157 2.16025 13.6554 0 11.0002 0C8.3449 0 6.18465 2.16025 6.18465 4.81559V9.01811H4.59871C3.72417 9.01811 3.0127 9.72963 3.0127 10.6041V20.4139C3.0127 21.2885 3.72417 22 4.59871 22H17.4016C18.2761 22 18.9876 21.2885 18.9876 20.4139V10.6042C18.9876 9.72963 18.2761 9.01811 17.4016 9.01811ZM7.24194 4.81559C7.24194 2.74334 8.92786 1.05737 11.0002 1.05737C13.0724 1.05737 14.7583 2.74334 14.7583 4.81559V9.01811H7.24194V4.81559ZM17.9303 20.414C17.9303 20.7055 17.6931 20.9427 17.4016 20.9427H4.59871C4.30721 20.9427 4.07003 20.7055 4.07003 20.414V10.6042C4.07003 10.3127 4.30721 10.0755 4.59871 10.0755H17.4016C17.6931 10.0755 17.9303 10.3126 17.9303 10.6042V20.414Z" fill="black"/>
</svg>
