<svg width="133" height="33" viewBox="0 0 133 33" fill="none" xmlns="http://www.w3.org/2000/svg">
<circle cx="16.5" cy="16.5" r="14.5" stroke="#E08385" stroke-width="4"/>
<circle cx="16.5" cy="16.5" r="12.5" fill="url(#paint0_linear)" stroke="white" stroke-width="4"/>
<path d="M41 23.2728C41.6896 23.8029 42.6215 24.1958 43.7957 24.4517C44.9885 24.7076 45.9856 24.8355 46.787 24.8355C48.6508 24.8355 50.058 24.4517 51.0085 23.6841C51.959 22.8982 52.4343 21.8016 52.4343 20.3943C52.4343 19.2976 51.987 18.4112 51.0924 17.735C50.2164 17.0405 49.0795 16.4556 47.6816 15.9804C47.253 15.8342 46.9082 15.688 46.6473 15.5418C46.3863 15.3956 46.2559 15.2676 46.2559 15.158C46.2559 14.9752 46.3863 14.829 46.6473 14.7193C46.9082 14.6097 47.2437 14.5548 47.6537 14.5548C48.1383 14.5548 48.6695 14.6279 49.2472 14.7742C49.8436 14.9204 50.4214 15.1123 50.9805 15.3499L52.4063 12.1971C51.7167 11.6671 50.8873 11.3016 49.9182 11.1005C48.9677 10.8812 48.0917 10.7715 47.2903 10.7715C45.4078 10.7715 43.9355 11.1645 42.8731 11.9504C41.8107 12.7363 41.2796 13.8238 41.2796 15.2128C41.2796 16.3094 41.7269 17.1958 42.6215 17.8721C43.5347 18.5483 44.6996 19.1332 46.1161 19.6266C46.5075 19.7546 46.8243 19.9008 47.0666 20.0653C47.3275 20.2115 47.458 20.3394 47.458 20.4491C47.458 20.6319 47.3462 20.7781 47.1225 20.8877C46.8989 20.9974 46.6193 21.0522 46.2838 21.0522C45.7992 21.0522 45.1655 20.9608 44.3828 20.7781C43.6186 20.5953 42.9663 20.376 42.4258 20.1201L41 23.2728Z" fill="#061C2E"/>
<path d="M63.5659 20.2024C63.1185 20.4034 62.6246 20.5862 62.0841 20.7507C61.5437 20.8969 61.1243 20.97 60.8261 20.97C60.3042 20.97 59.9315 20.8238 59.7078 20.5313C59.4842 20.2206 59.3724 19.8368 59.3724 19.3799V11.265H54.2842V19.846C54.2842 21.3995 54.6943 22.6514 55.5143 23.6018C56.3344 24.5339 57.5645 25 59.2046 25C60.9193 25 62.7644 24.3969 64.74 23.1906L66.1938 24.5614H68.654V11.265H63.5659V20.2024Z" fill="#061C2E"/>
<path d="M76.5476 15.5966C76.9949 15.3956 77.4888 15.2219 78.0293 15.0757C78.5698 14.9112 78.9891 14.829 79.2873 14.829C79.8092 14.829 80.182 14.9843 80.4056 15.295C80.6293 15.5875 80.7411 15.9621 80.7411 16.4191V24.5339H85.8292V15.953C85.8292 14.3995 85.4192 13.1567 84.5991 12.2245C83.779 11.2742 82.549 10.799 80.9088 10.799C79.1941 10.799 77.349 11.4021 75.3734 12.6084L74.4788 11.2376H71.4595V24.5339H76.5476V15.5966Z" fill="#061C2E"/>
<path d="M93.611 16.7206C94.1888 16.282 94.8784 15.9256 95.6798 15.6514C96.4812 15.3773 97.2174 15.2402 97.8884 15.2402L96.854 11.2376C96.1457 11.2376 95.3723 11.4021 94.5336 11.7311C93.6949 12.0601 92.9494 12.4439 92.297 12.8825L91.0669 11.265H88.5229V24.5339H93.611V16.7206Z" fill="#061C2E"/>
<path d="M102.069 9.4282C102.833 9.4282 103.485 9.16319 104.026 8.63316C104.585 8.10313 104.864 7.47258 104.864 6.74151C104.864 5.99217 104.585 5.35248 104.026 4.82245C103.485 4.27415 102.833 4 102.069 4C101.323 4 100.68 4.27415 100.14 4.82245C99.5993 5.35248 99.329 5.99217 99.329 6.74151C99.329 7.47258 99.5993 8.10313 100.14 8.63316C100.68 9.16319 101.323 9.4282 102.069 9.4282ZM104.641 24.5339V11.2376H99.5527V24.5339H104.641Z" fill="#061C2E"/>
<path d="M106.66 23.2728C107.35 23.8029 108.281 24.1958 109.456 24.4517C110.648 24.7076 111.646 24.8355 112.447 24.8355C114.311 24.8355 115.718 24.4517 116.668 23.6841C117.619 22.8982 118.094 21.8016 118.094 20.3943C118.094 19.2976 117.647 18.4112 116.752 17.735C115.876 17.0405 114.739 16.4556 113.342 15.9804C112.913 15.8342 112.568 15.688 112.307 15.5418C112.046 15.3956 111.916 15.2676 111.916 15.158C111.916 14.9752 112.046 14.829 112.307 14.7193C112.568 14.6097 112.904 14.5548 113.314 14.5548C113.798 14.5548 114.329 14.6279 114.907 14.7742C115.504 14.9204 116.081 15.1123 116.641 15.3499L118.066 12.1971C117.377 11.6671 116.547 11.3016 115.578 11.1005C114.628 10.8812 113.752 10.7715 112.95 10.7715C111.068 10.7715 109.595 11.1645 108.533 11.9504C107.471 12.7363 106.94 13.8238 106.94 15.2128C106.94 16.3094 107.387 17.1958 108.281 17.8721C109.195 18.5483 110.36 19.1332 111.776 19.6266C112.167 19.7546 112.484 19.9008 112.727 20.0653C112.988 20.2115 113.118 20.3394 113.118 20.4491C113.118 20.6319 113.006 20.7781 112.783 20.8877C112.559 20.9974 112.279 21.0522 111.944 21.0522C111.459 21.0522 110.826 20.9608 110.043 20.7781C109.279 20.5953 108.626 20.376 108.086 20.1201L106.66 23.2728Z" fill="#061C2E"/>
<path d="M133 17.6802C133 16.4008 132.748 15.2402 132.245 14.1984C131.761 13.1567 131.034 12.3251 130.065 11.7037C129.095 11.0822 127.912 10.7715 126.514 10.7715C125.135 10.7715 123.886 11.064 122.768 11.6488C121.668 12.2154 120.802 13.0379 120.168 14.1162C119.534 15.1945 119.217 16.4556 119.217 17.8995C119.217 19.3616 119.562 20.6227 120.252 21.6828C120.941 22.7245 121.892 23.5104 123.103 24.0405C124.333 24.5705 125.741 24.8355 127.325 24.8355C128.424 24.8355 129.496 24.6984 130.54 24.4243C131.602 24.1501 132.413 23.812 132.972 23.4099L131.546 20.0379C130.353 20.641 129.114 20.9426 127.828 20.9426C126.989 20.9426 126.309 20.7872 125.787 20.4765C125.284 20.1475 124.939 19.6997 124.753 19.1332H133V17.6802ZM124.613 16.6658C124.594 16.1723 124.762 15.7337 125.116 15.3499C125.489 14.9661 125.908 14.7742 126.374 14.7742C126.952 14.7742 127.39 14.9752 127.688 15.3773C127.986 15.7794 128.136 16.2089 128.136 16.6658H124.613Z" fill="#061C2E"/>
<defs>
<linearGradient id="paint0_linear" x1="16.5" y1="2" x2="16.5" y2="31" gradientUnits="userSpaceOnUse">
<stop stop-color="#EB6568"/>
<stop offset="1" stop-color="#D73148"/>
</linearGradient>
</defs>
</svg>
