<svg width="376" height="93" viewBox="0 0 376 93" fill="none" xmlns="http://www.w3.org/2000/svg">
<circle cx="46.5" cy="46.5" r="44.5" stroke="#E08385" stroke-width="4"/>
<circle cx="45.5" cy="45.5" r="37.5" fill="url(#paint0_linear)" stroke="white" stroke-width="4"/>
<path d="M116.001 65.0653C117.95 66.5796 120.583 67.7024 123.902 68.4334C127.273 69.1645 130.091 69.53 132.356 69.53C137.623 69.53 141.6 68.4334 144.286 66.2402C146.972 63.9948 148.315 60.8616 148.315 56.8407C148.315 53.7076 147.051 51.1749 144.523 49.2428C142.047 47.2585 138.834 45.5875 134.884 44.2298C133.672 43.812 132.698 43.3943 131.961 42.9765C131.223 42.5587 130.854 42.1932 130.854 41.8799C130.854 41.3577 131.223 40.9399 131.961 40.6266C132.698 40.3133 133.646 40.1567 134.805 40.1567C136.174 40.1567 137.676 40.3655 139.308 40.7833C140.994 41.201 142.627 41.7493 144.207 42.4282L148.236 33.4204C146.287 31.906 143.943 30.8616 141.205 30.2872C138.518 29.6606 136.043 29.3473 133.778 29.3473C128.458 29.3473 124.297 30.47 121.295 32.7154C118.292 34.9608 116.791 38.0679 116.791 42.0366C116.791 45.1697 118.055 47.7023 120.583 49.6345C123.164 51.5666 126.456 53.2376 130.459 54.6475C131.566 55.0131 132.461 55.4308 133.146 55.9008C133.883 56.3185 134.252 56.6841 134.252 56.9974C134.252 57.5196 133.936 57.9373 133.304 58.2507C132.672 58.564 131.882 58.7206 130.933 58.7206C129.564 58.7206 127.773 58.4595 125.561 57.9373C123.401 57.4151 121.558 56.7885 120.03 56.0574L116.001 65.0653Z" fill="#061C2E"/>
<path d="M179.774 56.2924C178.51 56.8668 177.114 57.389 175.587 57.859C174.059 58.2768 172.874 58.4856 172.031 58.4856C170.556 58.4856 169.503 58.0679 168.871 57.2324C168.239 56.3446 167.923 55.248 167.923 53.9426V30.7572H153.543V55.2742C153.543 59.7128 154.702 63.2898 157.02 66.0052C159.337 68.6684 162.814 70 167.449 70C172.295 70 177.509 68.2768 183.092 64.8303L187.201 68.7467H194.153V30.7572H179.774V56.2924Z" fill="#061C2E"/>
<path d="M216.462 43.1332C217.726 42.5587 219.121 42.0627 220.649 41.6449C222.176 41.1749 223.362 40.9399 224.204 40.9399C225.679 40.9399 226.733 41.3838 227.365 42.2715C227.997 43.1071 228.313 44.1775 228.313 45.483V68.6684H242.692V44.1514C242.692 39.7128 241.533 36.1619 239.216 33.4987C236.898 30.7833 233.422 29.4256 228.787 29.4256C223.941 29.4256 218.726 31.1488 213.143 34.5953L210.615 30.6788H202.082V68.6684H216.462V43.1332Z" fill="#061C2E"/>
<path d="M264.684 46.3446C266.317 45.0914 268.266 44.0731 270.531 43.2898C272.796 42.5065 274.876 42.1149 276.772 42.1149L273.849 30.6788C271.848 30.6788 269.662 31.1488 267.291 32.0888C264.921 33.0287 262.814 34.1253 260.971 35.3786L257.494 30.7572H250.305V68.6684H264.684V46.3446Z" fill="#061C2E"/>
<path d="M288.587 25.5091C290.746 25.5091 292.59 24.752 294.117 23.2376C295.697 21.7232 296.487 19.9217 296.487 17.8329C296.487 15.6919 295.697 13.8642 294.117 12.3499C292.59 10.7833 290.746 10 288.587 10C286.48 10 284.663 10.7833 283.135 12.3499C281.608 13.8642 280.844 15.6919 280.844 17.8329C280.844 19.9217 281.608 21.7232 283.135 23.2376C284.663 24.752 286.48 25.5091 288.587 25.5091ZM295.855 68.6684V30.6788H281.476V68.6684H295.855Z" fill="#061C2E"/>
<path d="M301.562 65.0653C303.511 66.5796 306.144 67.7024 309.463 68.4334C312.834 69.1645 315.652 69.53 317.917 69.53C323.184 69.53 327.16 68.4334 329.847 66.2402C332.533 63.9948 333.876 60.8616 333.876 56.8407C333.876 53.7076 332.612 51.1749 330.084 49.2428C327.608 47.2585 324.395 45.5875 320.445 44.2298C319.233 43.812 318.259 43.3943 317.521 42.9765C316.784 42.5587 316.415 42.1932 316.415 41.8799C316.415 41.3577 316.784 40.9399 317.521 40.6266C318.259 40.3133 319.207 40.1567 320.366 40.1567C321.735 40.1567 323.236 40.3655 324.869 40.7833C326.555 41.201 328.188 41.7493 329.768 42.4282L333.797 33.4204C331.848 31.906 329.504 30.8616 326.765 30.2872C324.079 29.6606 321.604 29.3473 319.339 29.3473C314.019 29.3473 309.858 30.47 306.855 32.7154C303.853 34.9608 302.352 38.0679 302.352 42.0366C302.352 45.1697 303.616 47.7023 306.144 49.6345C308.725 51.5666 312.017 53.2376 316.02 54.6475C317.126 55.0131 318.022 55.4308 318.707 55.9008C319.444 56.3185 319.813 56.6841 319.813 56.9974C319.813 57.5196 319.497 57.9373 318.865 58.2507C318.233 58.564 317.442 58.7206 316.494 58.7206C315.125 58.7206 313.334 58.4595 311.122 57.9373C308.962 57.4151 307.119 56.7885 305.591 56.0574L301.562 65.0653Z" fill="#061C2E"/>
<path d="M376.001 49.0862C376.001 45.4308 375.29 42.1149 373.868 39.1384C372.498 36.1619 370.444 33.7859 367.705 32.0104C364.966 30.235 361.622 29.3473 357.671 29.3473C353.773 29.3473 350.244 30.1828 347.084 31.8538C343.976 33.4726 341.527 35.8225 339.736 38.9034C337.945 41.9843 337.05 45.5875 337.05 49.7128C337.05 53.8903 338.024 57.4935 339.973 60.5222C341.922 63.4987 344.608 65.7441 348.032 67.2585C351.508 68.7728 355.485 69.53 359.962 69.53C363.07 69.53 366.099 69.1384 369.048 68.3551C372.051 67.5718 374.342 66.6057 375.922 65.4569L371.893 55.8224C368.522 57.5457 365.019 58.4073 361.385 58.4073C359.014 58.4073 357.092 57.9634 355.617 57.0757C354.195 56.1358 353.22 54.8564 352.694 53.2376H376.001V49.0862ZM352.299 46.188C352.246 44.7781 352.72 43.5248 353.721 42.4282C354.774 41.3316 355.959 40.7833 357.276 40.7833C358.909 40.7833 360.147 41.3577 360.989 42.5065C361.832 43.6554 362.254 44.8825 362.254 46.188H352.299Z" fill="#061C2E"/>
<defs>
<linearGradient id="paint0_linear" x1="45.5" y1="6" x2="45.5" y2="85" gradientUnits="userSpaceOnUse">
<stop stop-color="#EB6568"/>
<stop offset="1" stop-color="#D73148"/>
</linearGradient>
</defs>
</svg>
