<svg width="191" height="64" viewBox="0 0 191 64" fill="none" xmlns="http://www.w3.org/2000/svg">
<circle cx="23.5" cy="32.5" r="21.5" stroke="#E08385" stroke-width="4"/>
<circle cx="23.4999" cy="32.5002" r="17.9528" fill="url(#paint0_linear)" stroke="white" stroke-width="4"/>
<path d="M57.88 42.16C58.8667 42.9333 60.2 43.5067 61.88 43.88C63.5867 44.2533 65.0133 44.44 66.16 44.44C68.8267 44.44 70.84 43.88 72.2 42.76C73.56 41.6133 74.24 40.0133 74.24 37.96C74.24 36.36 73.6 35.0667 72.32 34.08C71.0667 33.0667 69.44 32.2133 67.44 31.52C66.8267 31.3067 66.3333 31.0933 65.96 30.88C65.5867 30.6667 65.4 30.48 65.4 30.32C65.4 30.0533 65.5867 29.84 65.96 29.68C66.3333 29.52 66.8133 29.44 67.4 29.44C68.0933 29.44 68.8533 29.5467 69.68 29.76C70.5333 29.9733 71.36 30.2533 72.16 30.6L74.2 26C73.2133 25.2267 72.0267 24.6933 70.64 24.4C69.28 24.08 68.0267 23.92 66.88 23.92C64.1867 23.92 62.08 24.4933 60.56 25.64C59.04 26.7867 58.28 28.3733 58.28 30.4C58.28 32 58.92 33.2933 60.2 34.28C61.5067 35.2667 63.1733 36.12 65.2 36.84C65.76 37.0267 66.2133 37.24 66.56 37.48C66.9333 37.6933 67.12 37.88 67.12 38.04C67.12 38.3067 66.96 38.52 66.64 38.68C66.32 38.84 65.92 38.92 65.44 38.92C64.7467 38.92 63.84 38.7867 62.72 38.52C61.6267 38.2533 60.6933 37.9333 59.92 37.56L57.88 42.16ZM90.1669 37.68C89.5269 37.9733 88.8202 38.24 88.0469 38.48C87.2735 38.6933 86.6735 38.8 86.2469 38.8C85.5002 38.8 84.9669 38.5867 84.6469 38.16C84.3269 37.7067 84.1669 37.1467 84.1669 36.48V24.64H76.8869V37.16C76.8869 39.4267 77.4735 41.2533 78.6469 42.64C79.8202 44 81.5802 44.68 83.9269 44.68C86.3802 44.68 89.0202 43.8 91.8469 42.04L93.9269 44.04H97.4469V24.64H90.1669V37.68ZM108.741 30.96C109.381 30.6667 110.088 30.4133 110.861 30.2C111.634 29.96 112.234 29.84 112.661 29.84C113.408 29.84 113.941 30.0667 114.261 30.52C114.581 30.9467 114.741 31.4933 114.741 32.16V44H122.021V31.48C122.021 29.2133 121.434 27.4 120.261 26.04C119.088 24.6533 117.328 23.96 114.981 23.96C112.528 23.96 109.888 24.84 107.061 26.6L105.781 24.6H101.461V44H108.741V30.96ZM133.155 32.6C133.982 31.96 134.968 31.44 136.115 31.04C137.262 30.64 138.315 30.44 139.275 30.44L137.795 24.6C136.782 24.6 135.675 24.84 134.475 25.32C133.275 25.8 132.208 26.36 131.275 27L129.515 24.64H125.875V44H133.155V32.6ZM145.256 21.96C146.35 21.96 147.283 21.5733 148.056 20.8C148.856 20.0267 149.256 19.1067 149.256 18.04C149.256 16.9467 148.856 16.0133 148.056 15.24C147.283 14.44 146.35 14.04 145.256 14.04C144.19 14.04 143.27 14.44 142.496 15.24C141.723 16.0133 141.336 16.9467 141.336 18.04C141.336 19.1067 141.723 20.0267 142.496 20.8C143.27 21.5733 144.19 21.96 145.256 21.96ZM148.936 44V24.6H141.656V44H148.936ZM151.825 42.16C152.812 42.9333 154.145 43.5067 155.825 43.88C157.532 44.2533 158.959 44.44 160.105 44.44C162.772 44.44 164.785 43.88 166.145 42.76C167.505 41.6133 168.185 40.0133 168.185 37.96C168.185 36.36 167.545 35.0667 166.265 34.08C165.012 33.0667 163.385 32.2133 161.385 31.52C160.772 31.3067 160.279 31.0933 159.905 30.88C159.532 30.6667 159.345 30.48 159.345 30.32C159.345 30.0533 159.532 29.84 159.905 29.68C160.279 29.52 160.759 29.44 161.345 29.44C162.039 29.44 162.799 29.5467 163.625 29.76C164.479 29.9733 165.305 30.2533 166.105 30.6L168.145 26C167.159 25.2267 165.972 24.6933 164.585 24.4C163.225 24.08 161.972 23.92 160.825 23.92C158.132 23.92 156.025 24.4933 154.505 25.64C152.985 26.7867 152.225 28.3733 152.225 30.4C152.225 32 152.865 33.2933 154.145 34.28C155.452 35.2667 157.119 36.12 159.145 36.84C159.705 37.0267 160.159 37.24 160.505 37.48C160.879 37.6933 161.065 37.88 161.065 38.04C161.065 38.3067 160.905 38.52 160.585 38.68C160.265 38.84 159.865 38.92 159.385 38.92C158.692 38.92 157.785 38.7867 156.665 38.52C155.572 38.2533 154.639 37.9333 153.865 37.56L151.825 42.16ZM189.512 34C189.512 32.1333 189.152 30.44 188.432 28.92C187.739 27.4 186.699 26.1867 185.312 25.28C183.926 24.3733 182.232 23.92 180.232 23.92C178.259 23.92 176.472 24.3467 174.872 25.2C173.299 26.0267 172.059 27.2267 171.152 28.8C170.246 30.3733 169.792 32.2133 169.792 34.32C169.792 36.4533 170.286 38.2933 171.272 39.84C172.259 41.36 173.619 42.5067 175.352 43.28C177.112 44.0533 179.126 44.44 181.392 44.44C182.966 44.44 184.499 44.24 185.992 43.84C187.512 43.44 188.672 42.9467 189.472 42.36L187.432 37.44C185.726 38.32 183.952 38.76 182.112 38.76C180.912 38.76 179.939 38.5333 179.192 38.08C178.472 37.6 177.979 36.9467 177.712 36.12H189.512V34ZM177.512 32.52C177.486 31.8 177.726 31.16 178.232 30.6C178.766 30.04 179.366 29.76 180.032 29.76C180.859 29.76 181.486 30.0533 181.912 30.64C182.339 31.2267 182.552 31.8533 182.552 32.52H177.512Z" fill="#061C2E"/>
<defs>
<linearGradient id="paint0_linear" x1="23.4999" y1="12.5474" x2="23.4999" y2="52.453" gradientUnits="userSpaceOnUse">
<stop stop-color="#EB6568"/>
<stop offset="1" stop-color="#D73148"/>
</linearGradient>
</defs>
</svg>
