<svg width="330" height="82" viewBox="0 0 330 82" fill="none" xmlns="http://www.w3.org/2000/svg">
<circle cx="41" cy="41" r="39" stroke="#E08385" stroke-width="4"/>
<circle cx="40" cy="40" r="33" fill="url(#paint0_linear)" stroke="white" stroke-width="4"/>
<path d="M101.999 57.641C103.708 58.9787 106.017 59.9704 108.927 60.6162C111.884 61.262 114.355 61.5849 116.341 61.5849C120.96 61.5849 124.447 60.6162 126.803 58.6788C129.158 56.6954 130.336 53.9278 130.336 50.376C130.336 47.6084 129.228 45.3712 127.011 43.6645C124.84 41.9117 122.022 40.4356 118.558 39.2363C117.496 38.8673 116.641 38.4983 115.994 38.1292C115.348 37.7602 115.024 37.4373 115.024 37.1606C115.024 36.6993 115.348 36.3303 115.994 36.0535C116.641 35.7768 117.472 35.6384 118.489 35.6384C119.69 35.6384 121.006 35.8229 122.438 36.1919C123.916 36.5609 125.348 37.0453 126.733 37.6449L130.267 29.688C128.558 28.3503 126.502 27.4278 124.101 26.9204C121.745 26.3668 119.574 26.0901 117.588 26.0901C112.923 26.0901 109.274 27.0818 106.641 29.0653C104.008 31.0487 102.692 33.7933 102.692 37.299C102.692 40.0666 103.8 42.3037 106.017 44.0104C108.281 45.7171 111.168 47.1932 114.678 48.4386C115.648 48.7615 116.433 49.1305 117.034 49.5457C117.68 49.9147 118.004 50.2376 118.004 50.5144C118.004 50.9756 117.726 51.3446 117.172 51.6214C116.618 51.8982 115.925 52.0365 115.094 52.0365C113.893 52.0365 112.322 51.8059 110.382 51.3446C108.489 50.8834 106.872 50.3298 105.533 49.6841L101.999 57.641Z" fill="#061C2E"/>
<path d="M157.923 49.8916C156.815 50.399 155.591 50.8603 154.251 51.2755C152.912 51.6445 151.872 51.829 151.133 51.829C149.84 51.829 148.916 51.46 148.362 50.7219C147.808 49.9378 147.531 48.9691 147.531 47.8159V27.3355H134.921V48.9922C134.921 52.913 135.937 56.0727 137.969 58.4713C140.002 60.8238 143.05 62 147.115 62C151.364 62 155.937 60.4778 160.833 57.4334L164.436 60.893H170.533V27.3355H157.923V49.8916Z" fill="#061C2E"/>
<path d="M190.095 38.2676C191.204 37.7602 192.428 37.322 193.767 36.953C195.107 36.5379 196.146 36.3303 196.885 36.3303C198.178 36.3303 199.102 36.7224 199.656 37.5065C200.211 38.2446 200.488 39.1902 200.488 40.3433V60.8238H213.097V39.1671C213.097 35.2463 212.081 32.1097 210.049 29.7572C208.017 27.3586 204.968 26.1593 200.904 26.1593C196.654 26.1593 192.081 27.6815 187.185 30.7258L184.968 27.2663H177.486V60.8238H190.095V38.2676Z" fill="#061C2E"/>
<path d="M232.383 41.1044C233.815 39.9974 235.524 39.0979 237.51 38.406C239.496 37.7141 241.32 37.3681 242.983 37.3681L240.42 27.2663C238.665 27.2663 236.748 27.6815 234.669 28.5117C232.591 29.342 230.743 30.3107 229.126 31.4178L226.078 27.3355H219.773V60.8238H232.383V41.1044Z" fill="#061C2E"/>
<path d="M253.343 22.6997C255.237 22.6997 256.854 22.0309 258.193 20.6932C259.579 19.3555 260.272 17.7641 260.272 15.9191C260.272 14.0278 259.579 12.4134 258.193 11.0757C256.854 9.69191 255.237 9 253.343 9C251.496 9 249.902 9.69191 248.563 11.0757C247.223 12.4134 246.554 14.0278 246.554 15.9191C246.554 17.7641 247.223 19.3555 248.563 20.6932C249.902 22.0309 251.496 22.6997 253.343 22.6997ZM259.717 60.8238V27.2663H247.108V60.8238H259.717Z" fill="#061C2E"/>
<path d="M264.722 57.641C266.431 58.9787 268.74 59.9704 271.65 60.6162C274.606 61.262 277.077 61.5849 279.063 61.5849C283.682 61.5849 287.17 60.6162 289.525 58.6788C291.881 56.6954 293.059 53.9278 293.059 50.376C293.059 47.6084 291.95 45.3712 289.733 43.6645C287.562 41.9117 284.745 40.4356 281.281 39.2363C280.218 38.8673 279.364 38.4983 278.717 38.1292C278.07 37.7602 277.747 37.4373 277.747 37.1606C277.747 36.6993 278.07 36.3303 278.717 36.0535C279.364 35.7768 280.195 35.6384 281.211 35.6384C282.412 35.6384 283.729 35.8229 285.16 36.1919C286.638 36.5609 288.07 37.0453 289.456 37.6449L292.989 29.688C291.28 28.3503 289.225 27.4278 286.823 26.9204C284.468 26.3668 282.297 26.0901 280.311 26.0901C275.645 26.0901 271.996 27.0818 269.364 29.0653C266.731 31.0487 265.414 33.7933 265.414 37.299C265.414 40.0666 266.523 42.3037 268.74 44.0104C271.003 45.7171 273.89 47.1932 277.401 48.4386C278.371 48.7615 279.156 49.1305 279.756 49.5457C280.403 49.9147 280.726 50.2376 280.726 50.5144C280.726 50.9756 280.449 51.3446 279.895 51.6214C279.341 51.8982 278.648 52.0365 277.816 52.0365C276.615 52.0365 275.045 51.8059 273.105 51.3446C271.211 50.8834 269.595 50.3298 268.255 49.6841L264.722 57.641Z" fill="#061C2E"/>
<path d="M329.999 43.5261C329.999 40.2972 329.375 37.3681 328.128 34.7389C326.927 32.1097 325.126 30.0109 322.724 28.4426C320.322 26.8742 317.389 26.0901 313.925 26.0901C310.507 26.0901 307.412 26.8281 304.641 28.3042C301.916 29.7341 299.768 31.8098 298.198 34.5313C296.627 37.2528 295.842 40.4356 295.842 44.0796C295.842 47.7698 296.697 50.9526 298.406 53.6279C300.115 56.2572 302.47 58.2406 305.473 59.5783C308.521 60.916 312.008 61.5849 315.934 61.5849C318.66 61.5849 321.315 61.2389 323.902 60.547C326.535 59.8551 328.544 59.0017 329.93 57.9869L326.396 49.4765C323.44 50.9987 320.369 51.7598 317.182 51.7598C315.103 51.7598 313.417 51.3677 312.124 50.5836C310.877 49.7533 310.022 48.6231 309.56 47.1932H329.999V43.5261ZM309.214 40.9661C309.168 39.7206 309.583 38.6136 310.461 37.6449C311.385 36.6762 312.424 36.1919 313.579 36.1919C315.011 36.1919 316.096 36.6993 316.835 37.7141C317.574 38.7289 317.944 39.8129 317.944 40.9661H309.214Z" fill="#061C2E"/>
<defs>
<linearGradient id="paint0_linear" x1="40" y1="5" x2="40" y2="75" gradientUnits="userSpaceOnUse">
<stop stop-color="#EB6568"/>
<stop offset="1" stop-color="#D73148"/>
</linearGradient>
</defs>
</svg>
