<svg width="233" height="58" viewBox="0 0 233 58" fill="none" xmlns="http://www.w3.org/2000/svg">
<circle cx="29" cy="29" r="27" stroke="#E08385" stroke-width="4"/>
<circle cx="28.5" cy="28.5" r="22.5" fill="url(#paint0_linear)" stroke="white" stroke-width="4"/>
<path d="M72 40.8747C73.2068 41.8338 74.8376 42.5448 76.8924 43.0078C78.9799 43.4708 80.7248 43.7024 82.1273 43.7024C85.3889 43.7024 87.8514 43.0078 89.5149 41.6188C91.1783 40.1967 92.01 38.2124 92.01 35.6658C92.01 33.6815 91.2272 32.0775 89.6616 30.8538C88.1287 29.597 86.1391 28.5387 83.6929 27.6789C82.9427 27.4143 82.3393 27.1497 81.8827 26.8851C81.4261 26.6205 81.1978 26.389 81.1978 26.1906C81.1978 25.8599 81.4261 25.5953 81.8827 25.3969C82.3393 25.1984 82.9264 25.0992 83.644 25.0992C84.492 25.0992 85.4215 25.2315 86.4326 25.4961C87.4764 25.7607 88.4875 26.1079 89.4659 26.5379L91.9611 20.8329C90.7543 19.8738 89.3029 19.2124 87.6068 18.8486C85.9434 18.4517 84.4104 18.2533 83.0079 18.2533C79.7137 18.2533 77.137 18.9643 75.2779 20.3864C73.4188 21.8085 72.4892 23.7763 72.4892 26.2898C72.4892 28.2742 73.272 29.8782 74.8376 31.1018C76.4358 32.3255 78.4743 33.3838 80.9531 34.2768C81.6381 34.5083 82.1925 34.7728 82.6166 35.0705C83.0732 35.3351 83.3015 35.5666 83.3015 35.765C83.3015 36.0957 83.1058 36.3603 82.7144 36.5587C82.323 36.7572 81.8338 36.8564 81.2467 36.8564C80.3987 36.8564 79.2897 36.691 77.9198 36.3603C76.5826 36.0296 75.441 35.6327 74.4951 35.1697L72 40.8747Z" fill="#061C2E"/>
<path d="M111.49 35.3185C110.707 35.6823 109.843 36.0131 108.897 36.3107C107.951 36.5753 107.218 36.7076 106.696 36.7076C105.782 36.7076 105.13 36.443 104.739 35.9138C104.347 35.3516 104.152 34.6571 104.152 33.8303V19.1462H95.2474V34.6736C95.2474 37.4848 95.965 39.7502 97.4001 41.47C98.8352 43.1567 100.988 44 103.858 44C106.859 44 110.088 42.9086 113.545 40.7258L116.089 43.2063H120.394V19.1462H111.49V35.3185Z" fill="#061C2E"/>
<path d="M134.208 26.9843C134.991 26.6205 135.855 26.3064 136.801 26.0418C137.747 25.7441 138.481 25.5953 139.003 25.5953C139.916 25.5953 140.568 25.8764 140.96 26.4386C141.351 26.9678 141.547 27.6458 141.547 28.4726V43.1567H150.451V27.6292C150.451 24.8181 149.734 22.5692 148.298 20.8825C146.863 19.1627 144.711 18.3029 141.84 18.3029C138.84 18.3029 135.611 19.3943 132.153 21.577L130.588 19.0966H125.304V43.1567H134.208V26.9843Z" fill="#061C2E"/>
<path d="M164.069 29.0183C165.08 28.2245 166.287 27.5796 167.69 27.0836C169.092 26.5875 170.38 26.3394 171.555 26.3394L169.744 19.0966C168.505 19.0966 167.151 19.3943 165.684 19.9896C164.216 20.5849 162.911 21.2794 161.77 22.0731L159.617 19.1462H155.165V43.1567H164.069V29.0183Z" fill="#061C2E"/>
<path d="M178.87 15.8225C180.208 15.8225 181.349 15.3429 182.295 14.3838C183.274 13.4247 183.763 12.2837 183.763 10.9608C183.763 9.60487 183.274 8.44734 182.295 7.48825C181.349 6.49608 180.208 6 178.87 6C177.566 6 176.44 6.49608 175.495 7.48825C174.549 8.44734 174.076 9.60487 174.076 10.9608C174.076 12.2837 174.549 13.4247 175.495 14.3838C176.44 15.3429 177.566 15.8225 178.87 15.8225ZM183.371 43.1567V19.0966H174.467V43.1567H183.371Z" fill="#061C2E"/>
<path d="M186.905 40.8747C188.112 41.8338 189.743 42.5448 191.797 43.0078C193.885 43.4708 195.63 43.7024 197.032 43.7024C200.294 43.7024 202.756 43.0078 204.42 41.6188C206.083 40.1967 206.915 38.2124 206.915 35.6658C206.915 33.6815 206.132 32.0775 204.567 30.8538C203.034 29.597 201.044 28.5387 198.598 27.6789C197.848 27.4143 197.244 27.1497 196.788 26.8851C196.331 26.6205 196.103 26.389 196.103 26.1906C196.103 25.8599 196.331 25.5953 196.788 25.3969C197.244 25.1984 197.831 25.0992 198.549 25.0992C199.397 25.0992 200.327 25.2315 201.338 25.4961C202.381 25.7607 203.392 26.1079 204.371 26.5379L206.866 20.8329C205.659 19.8738 204.208 19.2124 202.512 18.8486C200.848 18.4517 199.315 18.2533 197.913 18.2533C194.619 18.2533 192.042 18.9643 190.183 20.3864C188.324 21.8085 187.394 23.7763 187.394 26.2898C187.394 28.2742 188.177 29.8782 189.743 31.1018C191.341 32.3255 193.379 33.3838 195.858 34.2768C196.543 34.5083 197.098 34.7728 197.522 35.0705C197.978 35.3351 198.206 35.5666 198.206 35.765C198.206 36.0957 198.011 36.3603 197.619 36.5587C197.228 36.7572 196.739 36.8564 196.152 36.8564C195.304 36.8564 194.195 36.691 192.825 36.3603C191.488 36.0296 190.346 35.6327 189.4 35.1697L186.905 40.8747Z" fill="#061C2E"/>
<path d="M233 30.7546C233 28.4395 232.56 26.3394 231.679 24.4543C230.831 22.5692 229.559 21.0644 227.863 19.9399C226.167 18.8155 224.096 18.2533 221.65 18.2533C219.236 18.2533 217.051 18.7824 215.094 19.8407C213.169 20.866 211.653 22.3542 210.544 24.3055C209.435 26.2567 208.88 28.5387 208.88 31.1514C208.88 33.7972 209.484 36.0792 210.691 37.9974C211.897 39.8825 213.561 41.3046 215.681 42.2637C217.833 43.2228 220.296 43.7024 223.068 43.7024C224.993 43.7024 226.868 43.4543 228.695 42.9582C230.554 42.4621 231.973 41.8503 232.951 41.1227L230.456 35.0209C228.368 36.1123 226.2 36.658 223.949 36.658C222.481 36.658 221.291 36.3769 220.378 35.8146C219.497 35.2193 218.894 34.4091 218.567 33.3838H233V30.7546ZM218.323 28.9191C218.29 28.0261 218.584 27.2324 219.203 26.5379C219.856 25.8433 220.59 25.4961 221.405 25.4961C222.416 25.4961 223.183 25.8599 223.704 26.5875C224.226 27.3151 224.487 28.0923 224.487 28.9191H218.323Z" fill="#061C2E"/>
<defs>
<linearGradient id="paint0_linear" x1="28.5" y1="4" x2="28.5" y2="53" gradientUnits="userSpaceOnUse">
<stop stop-color="#EB6568"/>
<stop offset="1" stop-color="#D73148"/>
</linearGradient>
</defs>
</svg>
