<svg width="55" height="50" viewBox="0 0 55 50" fill="none" xmlns="http://www.w3.org/2000/svg">
<path d="M51.6799 0.000488281H3.32032C1.48952 0.000488281 0 1.52047 0 3.38871V37.4605C0 39.3287 1.48952 40.8487 3.32032 40.8487H19.8913V43.314C19.8913 45.5741 18.0894 47.4128 15.8747 47.4128H12.2226C11.5224 47.4128 10.9547 47.992 10.9547 48.7067C10.9547 49.4213 11.5224 50.0005 12.2226 50.0005H42.7774C43.4776 50.0005 44.0453 49.4213 44.0453 48.7067C44.0453 47.992 43.4776 47.4128 42.7774 47.4128H39.1252C36.9105 47.4128 35.1086 45.5741 35.1086 43.314V40.8488H51.6796C53.5104 40.8488 55 39.3288 55 37.4606V3.38871C55.0002 1.52047 53.5107 0.000488281 51.6799 0.000488281ZM21.0462 47.413C21.9105 46.28 22.4273 44.858 22.4273 43.3143V40.8489H32.573V43.3143C32.573 44.858 33.0898 46.2801 33.9541 47.413H21.0462ZM52.4644 37.4606C52.4644 37.902 52.1125 38.2612 51.6798 38.2612H3.32032C2.88773 38.2612 2.5357 37.9021 2.5357 37.4606V30.6606H52.4644V37.4606ZM52.4644 28.0728H2.53581V3.38871C2.53581 2.94727 2.88773 2.58805 3.32042 2.58805H51.6798C52.1124 2.58805 52.4645 2.94717 52.4645 3.38871V28.0728H52.4644Z" fill="white"/>
</svg>
