<svg width="228" height="39" viewBox="0 0 228 39" fill="none" xmlns="http://www.w3.org/2000/svg">
<path d="M4.68892 4.73024C6.35568 3.04779 8.36983 1.75793 10.5874 0.952802C12.8051 0.147677 15.1714 -0.152827 17.5173 0.0727633C19.8633 0.298354 22.1309 1.04447 24.1582 2.25779C26.1855 3.47112 27.9225 5.1217 29.2449 7.09159C27.462 4.40672 24.717 2.52543 21.588 1.84393C18.4589 1.16244 15.1902 1.73394 12.4701 3.43807C9.75 5.1422 7.79092 7.84594 7.00548 10.9798C6.22004 14.1137 6.66953 17.4332 8.25928 20.239C8.50278 20.7079 8.78761 21.1536 9.11032 21.5708C9.72762 22.4097 10.446 23.1676 11.249 23.8269L15.9917 28.6168L21.1334 33.8095L15.9917 39L4.68892 27.585C3.20241 26.0846 2.02319 24.3032 1.21865 22.3424C0.414103 20.3817 0 18.28 0 16.1576C0 14.0352 0.414103 11.9335 1.21865 9.97275C2.02319 8.012 3.20241 6.23056 4.68892 4.73024Z" fill="url(#paint0_linear)"/>
<path d="M6.69242 14.142C6.69311 11.4772 7.53837 8.88257 9.10446 6.73788C10.6706 4.59318 12.8753 3.01105 15.3959 2.22303C17.9165 1.43502 20.6207 1.48251 23.1127 2.35855C25.6047 3.23459 27.7536 4.89318 29.2449 7.09157L29.338 7.23035C29.4311 7.36912 29.5219 7.51236 29.6084 7.65561L29.6283 7.68918C31.5129 10.784 32.3101 14.4299 31.8911 18.0384C31.4721 21.647 29.8614 25.0077 27.319 27.5782L23.7486 31.184L18.6069 25.9913L22.1773 22.3855C23.3151 21.2323 24.1143 19.7834 24.4863 18.1994C24.8583 16.6154 24.7886 14.9583 24.2848 13.4119C23.7811 11.8655 22.8631 10.4903 21.6325 9.43872C20.402 8.38718 18.9071 7.70044 17.3136 7.4547C15.7202 7.20895 14.0905 7.41379 12.6053 8.04651C11.1201 8.67922 9.83746 9.71508 8.89969 11.0392C7.96192 12.3632 7.40567 13.9238 7.29263 15.5477C7.17959 17.1717 7.51419 18.7955 8.2593 20.239C7.227 18.3764 6.68736 16.2766 6.69242 14.142Z" fill="url(#paint1_linear)"/>
<path d="M8.8999 14.0861L12.9889 13.4952L13.9751 13.3542L16.2379 8.78149L17.9067 12.1389L18.5051 13.3475L22.7691 13.963L23.4894 14.0682L23.567 14.0906L20.2958 17.2622L19.908 17.6405L20.6637 22.0274L20.7346 22.4348C20.7346 22.5064 20.7346 22.578 20.7346 22.6586L16.7166 20.5569L16.2379 20.2995L12.129 22.4482L11.8253 22.6071C11.7854 22.625 11.7433 22.6429 11.7034 22.6564L12.4525 18.3164L12.5678 17.6449L9.03953 14.2339L8.8999 14.0861Z" fill="#FFC724"/>
<path opacity="0.46" d="M20.67 22.0341L19.9142 17.6472L20.3021 17.2689L23.5733 14.0973L23.4957 14.0749L22.7754 13.9697L18.5114 13.3542L17.913 12.1456L16.2441 8.78821V8.7994V20.3085L16.7339 20.5636L20.752 22.6653C20.752 22.5937 20.752 22.5221 20.752 22.4415L20.67 22.0341Z" fill="url(#paint2_linear)"/>
<path d="M56.0836 17.8708C56.0974 18.744 55.8896 19.6065 55.4796 20.3776C55.0715 21.1171 54.4987 21.7528 53.8055 22.2352C53.0398 22.7607 52.1885 23.149 51.2897 23.3826C50.2655 23.6534 49.2098 23.7863 48.1505 23.7779H47.7039V29.7075H43.3823V12.15H48.4429C49.4807 12.1464 50.5152 12.2673 51.5243 12.51C52.3898 12.7057 53.212 13.0587 53.9501 13.5513C54.6148 14.0065 55.1576 14.6179 55.531 15.3318C55.9187 16.1206 56.1084 16.9921 56.0836 17.8708ZM51.9066 17.8997C51.9066 16.2842 50.7563 15.4753 48.4558 15.4732H47.6911V20.4547H48.4011C49.545 20.4547 50.4125 20.2265 51.0102 19.7702C51.3025 19.5559 51.538 19.2736 51.6965 18.9476C51.855 18.6217 51.9315 18.2619 51.9195 17.8997H51.9066Z" fill="#292929"/>
<path d="M70.8448 23.2508C70.8522 24.1532 70.6999 25.0497 70.395 25.899C70.1092 26.7094 69.6501 27.4476 69.0496 28.0621C68.4492 28.6766 67.7218 29.1526 66.9184 29.4568C65.0095 30.1425 62.9216 30.1425 61.0128 29.4568C60.1975 29.146 59.4605 28.66 58.8536 28.0331C58.2686 27.4222 57.8187 26.6952 57.533 25.899C56.9376 24.1827 56.9376 22.3157 57.533 20.5993C57.8202 19.7893 58.2803 19.0515 58.8812 18.4371C59.4821 17.8227 60.2094 17.3465 61.0128 17.0416C62.9216 16.3559 65.0095 16.3559 66.9184 17.0416C67.7218 17.3458 68.4492 17.8218 69.0496 18.4363C69.6501 19.0508 70.1092 19.789 70.395 20.5993C70.6999 21.4497 70.8522 22.3474 70.8448 23.2508ZM66.626 23.2508C66.628 22.8039 66.5839 22.358 66.4943 21.9202C66.4163 21.5118 66.2696 21.1195 66.0605 20.76C65.863 20.4215 65.582 20.1394 65.2444 19.9405C64.8457 19.7398 64.4055 19.6353 63.9592 19.6353C63.5128 19.6353 63.0727 19.7398 62.6739 19.9405C62.3357 20.1385 62.0545 20.4209 61.8578 20.76C61.649 21.1199 61.5014 21.512 61.4208 21.9202C61.2452 22.7986 61.2452 23.703 61.4208 24.5813C61.5019 24.9894 61.6496 25.3814 61.8578 25.7416C62.0542 26.08 62.3355 26.3614 62.6739 26.5579C63.072 26.7608 63.5124 26.8665 63.9592 26.8665C64.4059 26.8665 64.8463 26.7608 65.2444 26.5579C65.5818 26.3601 65.8628 26.079 66.0605 25.7416C66.2691 25.3819 66.4157 24.9897 66.4943 24.5813C66.5839 24.1435 66.628 23.6977 66.626 23.2508Z" fill="#292929"/>
<path d="M82.3087 25.4909C82.3202 26.1563 82.1807 26.8156 81.9006 27.4192C81.6325 27.9756 81.2347 28.4595 80.7407 28.8301C80.2054 29.2229 79.6018 29.5128 78.9606 29.685C78.2224 29.8847 77.4602 29.982 76.6954 29.9743C75.9533 29.9714 75.2127 29.9058 74.4816 29.7782C73.7578 29.6602 73.0496 29.4608 72.3706 29.1836L72.9522 26.259C73.533 26.4972 74.1387 26.6697 74.7579 26.7732C75.3273 26.8777 75.9045 26.9347 76.4833 26.9436C76.937 26.9541 77.3885 26.8777 77.8136 26.7186C77.9776 26.6739 78.1223 26.5763 78.2252 26.4409C78.328 26.3055 78.3833 26.1398 78.3823 25.9698C78.384 25.8179 78.3359 25.6697 78.2454 25.5478C78.1549 25.4259 78.0269 25.337 77.881 25.2948C77.5597 25.1631 77.0456 24.9734 76.3773 24.7292C75.8549 24.5463 75.3441 24.3316 74.8479 24.0864C74.4011 23.8667 73.9887 23.5831 73.6237 23.2444C73.2858 22.9261 73.013 22.5452 72.8204 22.1227C72.6188 21.6576 72.5201 21.1544 72.5313 20.6476C72.5313 19.2399 73.0057 18.2029 73.9547 17.5365C74.9036 16.8702 76.1417 16.5359 77.669 16.5338C78.413 16.5265 79.1555 16.602 79.8828 16.7587C80.56 16.9097 81.2101 17.1633 81.8106 17.5108L81.2291 20.278C80.7451 20.0625 80.2429 19.8905 79.7286 19.7637C79.1851 19.6294 78.6272 19.5624 78.0674 19.5645C77.6713 19.5508 77.2755 19.5996 76.8946 19.7091C76.769 19.7468 76.6601 19.8263 76.5859 19.9345C76.5117 20.0426 76.4766 20.1729 76.4866 20.3037C76.4868 20.4494 76.5346 20.5911 76.6228 20.7071C76.711 20.8232 76.8346 20.9072 76.9749 20.9464C77.2962 21.0782 77.7172 21.2421 78.2248 21.435C78.6136 21.5764 79.0442 21.7563 79.5101 21.9492C79.985 22.1502 80.4321 22.4116 80.8403 22.7269C81.2541 23.0417 81.6069 23.4295 81.8813 23.8711C82.1754 24.3592 82.3237 24.9212 82.3087 25.4909Z" fill="#292929"/>
<path d="M84.2976 13.021C84.2875 12.7111 84.3391 12.4024 84.4494 12.1127C84.5597 11.823 84.7266 11.5582 84.9403 11.3337C85.402 10.8939 86.0152 10.6487 86.6528 10.6487C87.2904 10.6487 87.9036 10.8939 88.3654 11.3337C88.7909 11.7925 89.0273 12.3952 89.0273 13.021C89.0273 13.6468 88.7909 14.2494 88.3654 14.7083C87.9036 15.148 87.2904 15.3933 86.6528 15.3933C86.0152 15.3933 85.402 15.148 84.9403 14.7083C84.7266 14.4837 84.5597 14.2189 84.4494 13.9292C84.3391 13.6395 84.2875 13.3308 84.2976 13.021ZM84.5611 29.7075V16.7909H88.7959V29.7075H84.5611Z" fill="#292929"/>
<path d="M90.5825 16.7909H92.5586V13.4163H96.7773V16.7909H100.492V20.0048H96.7773V25.0441C96.7509 25.4661 96.8638 25.885 97.0986 26.2365C97.3203 26.5257 97.7188 26.6704 98.3003 26.6704C98.6227 26.6696 98.9446 26.6481 99.2642 26.6061C99.5806 26.5639 99.8932 26.4973 100.199 26.4068L100.488 29.354C99.9922 29.5726 99.4693 29.7249 98.9333 29.8071C98.3242 29.9123 97.7071 29.965 97.089 29.9646C96.3716 29.9861 95.6577 29.8558 94.9941 29.5821C94.4644 29.3571 93.9929 29.0141 93.6157 28.5794C93.2469 28.1312 92.9775 27.6098 92.8253 27.0496C92.6548 26.4354 92.5704 25.8005 92.5746 25.1631V20.0208H90.5986L90.5825 16.7909Z" fill="#292929"/>
<path d="M102.339 13.021C102.331 12.71 102.385 12.4006 102.498 12.1109C102.611 11.8211 102.781 11.5569 102.998 11.3337C103.46 10.8939 104.073 10.6487 104.71 10.6487C105.348 10.6487 105.961 10.8939 106.423 11.3337C106.846 11.7935 107.081 12.3958 107.081 13.021C107.081 13.6461 106.846 14.2484 106.423 14.7083C105.961 15.148 105.348 15.3933 104.71 15.3933C104.073 15.3933 103.46 15.148 102.998 14.7083C102.781 14.485 102.611 14.2208 102.498 13.931C102.385 13.6413 102.331 13.3319 102.339 13.021ZM102.603 29.7075V16.7909H106.818V29.7075H102.603Z" fill="#292929"/>
<path d="M112.853 29.7075L108.374 16.7909H112.615L115.092 25.8605L117.573 16.7909H121.814L117.335 29.7075H112.853Z" fill="#292929"/>
<path d="M129.037 16.5274C130.725 16.5274 132.059 17.0244 133.04 18.0186C134.021 19.0128 134.514 20.3905 134.518 22.1517C134.512 22.8703 134.433 23.5865 134.281 24.2889H126.794C126.797 24.6445 126.869 24.9962 127.007 25.3237C127.146 25.6513 127.347 25.9484 127.601 26.198C128.102 26.6822 128.87 26.9243 129.904 26.9243C130.572 26.9209 131.238 26.8639 131.896 26.754C132.517 26.6601 133.123 26.4873 133.699 26.2397L134.229 28.9523C133.516 29.3032 132.76 29.5603 131.98 29.7172C131.126 29.8953 130.256 29.9837 129.384 29.9807C128.37 29.9998 127.361 29.8354 126.405 29.4954C125.596 29.2035 124.859 28.7397 124.246 28.1359C123.659 27.5471 123.209 26.836 122.929 26.0533C122.62 25.1917 122.468 24.2818 122.479 23.3665C122.464 22.3975 122.621 21.4335 122.942 20.519C123.221 19.716 123.671 18.9827 124.259 18.3689C124.842 17.7714 125.548 17.3085 126.328 17.0127C127.193 16.6818 128.111 16.5172 129.037 16.5274ZM128.905 19.2174C128.616 19.1996 128.327 19.2482 128.059 19.3597C127.792 19.4711 127.554 19.6423 127.363 19.8602C126.977 20.3696 126.786 20.9997 126.823 21.6374H130.566C130.603 21.4914 130.621 21.3413 130.621 21.1907C130.638 20.6826 130.479 20.1843 130.171 19.7798C130.02 19.5926 129.826 19.4441 129.606 19.3463C129.386 19.2485 129.146 19.2044 128.905 19.2174Z" fill="#292929"/>
<path d="M148.238 16.9773C148.248 17.6253 148.118 18.268 147.856 18.8606C147.608 19.4047 147.259 19.8967 146.827 20.3101C146.379 20.7363 145.869 21.0918 145.314 21.3642C144.734 21.6547 144.125 21.88 143.495 22.0359L149.793 29.7075H147.595L141.638 22.3155C141.5 22.3155 141.336 22.3445 141.153 22.3541C140.97 22.3637 140.796 22.3541 140.639 22.3541H139.373V29.6818H137.58V12.15H141.799C142.629 12.1476 143.457 12.2458 144.263 12.4425C144.996 12.6143 145.692 12.9182 146.316 13.3391C146.892 13.7304 147.37 14.2482 147.714 14.8529C148.072 15.5029 148.252 16.2355 148.238 16.9773ZM146.445 17.0287C146.462 16.4793 146.325 15.9361 146.05 15.4603C145.787 15.0303 145.426 14.669 144.996 14.4062C144.533 14.1245 144.026 13.9235 143.495 13.8116C142.923 13.6886 142.339 13.6272 141.754 13.6284H139.383V20.9046H140.806C141.532 20.9073 142.257 20.8275 142.965 20.6668C143.602 20.5294 144.212 20.2883 144.771 19.9533C145.271 19.6586 145.692 19.2473 145.998 18.7545C146.301 18.2312 146.451 17.633 146.429 17.0287H146.445Z" fill="#292929"/>
<path d="M156.762 16.8713C157.49 16.8513 158.214 16.9906 158.883 17.2794C159.45 17.5356 159.95 17.9195 160.345 18.4011C160.739 18.8889 161.027 19.4538 161.19 20.0594C161.368 20.7216 161.457 21.4048 161.453 22.0906C161.451 22.6738 161.397 23.2556 161.293 23.8293H153.019C153.034 25.3677 153.402 26.5386 154.124 27.3421C154.844 28.1488 155.927 28.5473 157.366 28.5473C158.023 28.5486 158.677 28.4742 159.317 28.3256C159.907 28.1905 160.482 27.9911 161.029 27.731L161.322 29.0583C160.706 29.3458 160.059 29.5615 159.394 29.7011C158.664 29.871 157.917 29.9562 157.167 29.955C156.268 29.9743 155.375 29.8046 154.545 29.4568C153.827 29.1446 153.19 28.6705 152.685 28.0717C152.18 27.4591 151.804 26.7507 151.579 25.9891C151.078 24.2941 151.078 22.4903 151.579 20.7954C151.811 20.0393 152.182 19.3331 152.672 18.7128C153.14 18.1295 153.736 17.6611 154.413 17.3437C155.15 17.0092 155.953 16.8476 156.762 16.8713ZM156.682 18.2147C156.145 18.2046 155.614 18.3307 155.14 18.581C154.699 18.8206 154.313 19.1489 154.005 19.5452C153.694 19.9473 153.454 20.3994 153.295 20.8822C153.128 21.3756 153.035 21.8912 153.019 22.412H159.766C159.908 21.3726 159.694 20.3159 159.159 19.4134C158.649 18.6164 157.824 18.2168 156.682 18.2147Z" fill="#292929"/>
<path d="M176.793 27.4931L179.665 17.1348H181.429L177.635 29.7075H175.973L172.362 18.7417L168.754 29.7075H167.092L163.298 17.1348H165.062L167.934 27.4931L171.372 17.1348H173.374L176.793 27.4931Z" fill="#292929"/>
<path d="M191.293 27.9945C191.069 28.237 190.826 28.4615 190.567 28.6663C190.261 28.9141 189.931 29.1295 189.581 29.309C189.19 29.5128 188.779 29.6723 188.353 29.7847C187.894 29.9084 187.421 29.97 186.946 29.9679C185.802 29.9679 184.931 29.6465 184.334 29.0037C183.874 28.4553 183.578 27.7891 183.478 27.0807C183.378 26.3724 183.479 25.6501 183.768 24.996C183.981 24.5655 184.293 24.1911 184.677 23.9033C185.095 23.5981 185.564 23.3705 186.062 23.2316C186.633 23.0681 187.22 22.971 187.813 22.9423C188.376 22.907 188.948 22.878 189.526 22.862L191.267 22.8105V21.991C191.267 20.7279 191.007 19.7991 190.49 19.211C189.973 18.6229 189.166 18.3272 188.077 18.3272C187.486 18.3218 186.898 18.3931 186.326 18.5393C185.771 18.6852 185.242 18.9161 184.758 19.2238L184.308 17.8804C184.853 17.5582 185.439 17.3097 186.049 17.1412C186.787 16.9391 187.55 16.8417 188.315 16.852C188.96 16.8452 189.602 16.9474 190.214 17.1541C190.775 17.3464 191.284 17.6666 191.701 18.0893C192.129 18.5439 192.457 19.0823 192.665 19.6706C192.915 20.3936 193.035 21.1554 193.019 21.9203V29.6947H191.293V27.9945ZM187.357 28.602C188.112 28.6017 188.854 28.4009 189.507 28.0203C190.17 27.6509 190.766 27.1704 191.267 26.5997V24.08C190.689 24.0993 190.124 24.125 189.574 24.1604L188.038 24.2664C187.319 24.3185 186.623 24.5387 186.004 24.9092C185.737 25.0874 185.521 25.3339 185.381 25.6231C185.24 25.9124 185.179 26.234 185.204 26.5547C185.194 27.9196 185.909 28.602 187.351 28.602H187.357Z" fill="#292929"/>
<path d="M203.754 18.5842H203.252C202.346 18.566 201.449 18.7748 200.643 19.1917C199.863 19.6183 199.229 20.2701 198.825 21.0621V29.7075H197.058V17.1348L198.719 17.1091V19.6127C199.042 18.8346 199.593 18.1725 200.3 17.7133C201.068 17.2281 201.962 16.981 202.87 17.003C203.166 16.9931 203.461 17.0378 203.741 17.1348L203.754 18.5842Z" fill="#292929"/>
<path d="M215.902 29.7075H214.241V27.8884C213.783 28.4825 213.209 28.9768 212.554 29.3411C211.784 29.7793 210.911 30.0013 210.025 29.9839C209.31 29.9984 208.603 29.8314 207.969 29.4986C207.368 29.1702 206.85 28.7098 206.452 28.152C206.018 27.533 205.698 26.8421 205.505 26.1111C205.283 25.2724 205.175 24.4076 205.183 23.54C205.167 22.5922 205.323 21.6492 205.643 20.7568C205.927 19.9787 206.371 19.2691 206.947 18.6742C207.517 18.0889 208.205 17.631 208.965 17.3308C209.785 17.0177 210.657 16.8618 211.536 16.8712C212.003 16.8666 212.47 16.8967 212.933 16.9612C213.344 17.0231 213.75 17.1143 214.148 17.2344V11.0959H215.912L215.902 29.7075ZM210.501 28.5473C211.263 28.5687 212.011 28.3432 212.634 27.9045C213.189 27.5123 213.693 27.0548 214.138 26.5418V18.6903C213.769 18.5452 213.384 18.4438 212.991 18.3882C212.559 18.3237 212.123 18.2925 211.687 18.295C211.04 18.2894 210.397 18.3982 209.788 18.6164C209.219 18.8168 208.706 19.1469 208.287 19.5805C207.846 20.0523 207.508 20.6119 207.297 21.2228C207.047 21.9558 206.926 22.7269 206.941 23.5015C206.941 25.0206 207.223 26.2397 207.786 27.1589C208.349 28.078 209.254 28.5408 210.501 28.5473Z" fill="#292929"/>
<path d="M227.999 26.2815C228.007 26.8129 227.884 27.3381 227.643 27.8113C227.404 28.2684 227.064 28.6651 226.65 28.9716C226.195 29.3038 225.685 29.553 225.143 29.7075C224.525 29.8889 223.884 29.9777 223.241 29.9711C222.919 29.9704 222.597 29.9532 222.277 29.9197C221.933 29.8843 221.592 29.8361 221.258 29.775C220.932 29.7155 220.61 29.6361 220.294 29.5372C220.019 29.4541 219.75 29.3532 219.488 29.2351L219.809 27.8113C220.312 28.0302 220.832 28.2065 221.364 28.3384C221.968 28.4836 222.588 28.5538 223.209 28.5473C223.96 28.5721 224.703 28.3897 225.358 28.0203C225.638 27.8648 225.868 27.6345 226.024 27.3552C226.181 27.0759 226.256 26.7587 226.242 26.439C226.251 26.1234 226.168 25.812 226.004 25.5423C225.835 25.2897 225.626 25.067 225.384 24.8835C225.109 24.6795 224.813 24.507 224.5 24.3693L223.472 23.9097C223.051 23.7329 222.617 23.5369 222.168 23.3151C221.733 23.1048 221.323 22.8484 220.943 22.5502C220.582 22.2697 220.274 21.9269 220.034 21.5378C219.789 21.1229 219.665 20.6473 219.677 20.1655C219.661 19.6589 219.771 19.1562 219.999 18.7032C220.219 18.2915 220.536 17.9388 220.921 17.6747C221.332 17.3928 221.79 17.187 222.274 17.0673C222.808 16.9331 223.358 16.8672 223.909 16.8713C225.153 16.8684 226.379 17.1567 227.492 17.7133L227.151 19.1371C226.646 18.8761 226.115 18.6682 225.567 18.5168C225.027 18.3693 224.469 18.2947 223.909 18.295C223.287 18.2679 222.669 18.4042 222.116 18.6903C221.89 18.8238 221.706 19.0181 221.585 19.251C221.464 19.484 221.411 19.7463 221.432 20.008C221.42 20.3024 221.502 20.5929 221.666 20.8372C221.835 21.0673 222.04 21.2681 222.274 21.4318C222.534 21.6135 222.813 21.7675 223.106 21.8914C223.427 22.0231 223.723 22.1678 224.041 22.3285C224.359 22.4891 224.796 22.6916 225.252 22.8941C225.709 23.0982 226.14 23.3549 226.537 23.659C226.938 23.9638 227.286 24.3331 227.565 24.7517C227.86 25.2069 228.011 25.7397 227.999 26.2815Z" fill="#292929"/>
<defs>
<linearGradient id="paint0_linear" x1="3.20625" y1="29.0756" x2="30.7555" y2="1.79724" gradientUnits="userSpaceOnUse">
<stop stop-color="#F58B1F"/>
<stop offset="0.49" stop-color="#ED6723"/>
<stop offset="1" stop-color="#EE3E30"/>
</linearGradient>
<linearGradient id="paint1_linear" x1="39.9759" y1="1.81379" x2="-0.692225" y2="30.179" gradientUnits="userSpaceOnUse">
<stop stop-color="#C41E51"/>
<stop offset="0.17" stop-color="#B41D4A"/>
<stop offset="0.43" stop-color="#A21B43"/>
<stop offset="0.7" stop-color="#971A3E"/>
<stop offset="1" stop-color="#931A3D"/>
</linearGradient>
<linearGradient id="paint2_linear" x1="624.56" y1="2473.92" x2="867.154" y2="2473.92" gradientUnits="userSpaceOnUse">
<stop stop-color="#F58B1F"/>
<stop offset="0.49" stop-color="#ED6723"/>
<stop offset="1" stop-color="#EE3E30"/>
</linearGradient>
</defs>
</svg>
