<svg width="116" height="84" viewBox="0 0 116 84" fill="none" xmlns="http://www.w3.org/2000/svg">
<path d="M3.85596 0H50.9657V27.7697C50.9657 39.0066 49.7921 47.8487 47.445 54.2961C45.0979 60.8355 40.6272 66.6842 34.033 71.8421C27.5505 77 19.2798 81.0526 9.22076 84L0 67.9737C9.50018 65.3947 16.2621 61.8487 20.2857 57.3355C24.3093 52.8224 26.4329 46.6513 26.6564 38.8224H3.85596V0Z" fill="#F8EDED" fill-opacity="0.56"/>
<path d="M68.8903 0H116V27.7697C116 39.0066 114.826 47.8487 112.479 54.2961C110.132 60.8355 105.662 66.6842 99.0673 71.8421C92.5848 77 84.3141 81.0526 74.2551 84L65.0343 67.9737C74.5345 65.3947 81.2964 61.8487 85.32 57.3355C89.3436 52.8224 91.4672 46.6513 91.6907 38.8224H68.8903V0Z" fill="#F8EDED" fill-opacity="0.56"/>
</svg>
