<svg width="32" height="39" viewBox="0 0 32 39" fill="none" xmlns="http://www.w3.org/2000/svg">
<path d="M4.68892 4.73024C6.35568 3.04779 8.36983 1.75793 10.5874 0.952802C12.8051 0.147677 15.1714 -0.152827 17.5173 0.0727633C19.8633 0.298354 22.1309 1.04447 24.1582 2.25779C26.1855 3.47112 27.9225 5.1217 29.2449 7.09159C27.462 4.40672 24.717 2.52543 21.588 1.84393C18.4589 1.16244 15.1902 1.73394 12.4701 3.43807C9.75 5.1422 7.79092 7.84594 7.00548 10.9798C6.22004 14.1137 6.66953 17.4332 8.25928 20.239C8.50278 20.7079 8.78761 21.1536 9.11032 21.5708C9.72762 22.4097 10.446 23.1676 11.249 23.8269L15.9917 28.6168L21.1334 33.8095L15.9917 39L4.68892 27.585C3.20241 26.0846 2.02319 24.3032 1.21865 22.3424C0.414103 20.3817 0 18.28 0 16.1576C0 14.0352 0.414103 11.9335 1.21865 9.97275C2.02319 8.012 3.20241 6.23056 4.68892 4.73024Z" fill="url(#paint0_linear)"/>
<path d="M6.69242 14.142C6.69311 11.4772 7.53837 8.88257 9.10446 6.73788C10.6706 4.59318 12.8753 3.01105 15.3959 2.22303C17.9165 1.43502 20.6207 1.48251 23.1127 2.35855C25.6047 3.23459 27.7536 4.89318 29.2449 7.09157L29.338 7.23035C29.4311 7.36912 29.5219 7.51236 29.6084 7.65561L29.6283 7.68918C31.5129 10.784 32.3101 14.4299 31.8911 18.0384C31.4721 21.647 29.8614 25.0077 27.319 27.5782L23.7486 31.184L18.6069 25.9913L22.1773 22.3855C23.3151 21.2323 24.1143 19.7834 24.4863 18.1994C24.8583 16.6154 24.7886 14.9583 24.2848 13.4119C23.7811 11.8655 22.8631 10.4903 21.6325 9.43872C20.402 8.38718 18.9071 7.70044 17.3136 7.4547C15.7202 7.20895 14.0905 7.41379 12.6053 8.04651C11.1201 8.67922 9.83746 9.71508 8.89969 11.0392C7.96192 12.3632 7.40567 13.9238 7.29263 15.5477C7.17959 17.1717 7.51419 18.7955 8.2593 20.239C7.227 18.3764 6.68736 16.2766 6.69242 14.142Z" fill="url(#paint1_linear)"/>
<path d="M8.8999 14.0861L12.9889 13.4952L13.9751 13.3542L16.2379 8.78149L17.9067 12.1389L18.5051 13.3475L22.7691 13.963L23.4894 14.0682L23.567 14.0906L20.2958 17.2622L19.908 17.6405L20.6637 22.0274L20.7346 22.4348C20.7346 22.5064 20.7346 22.578 20.7346 22.6586L16.7166 20.5569L16.2379 20.2995L12.129 22.4482L11.8253 22.6071C11.7854 22.625 11.7433 22.6429 11.7034 22.6564L12.4525 18.3164L12.5678 17.6449L9.03953 14.2339L8.8999 14.0861Z" fill="#FFC724"/>
<path opacity="0.46" d="M20.67 22.0341L19.9142 17.6472L20.3021 17.2689L23.5733 14.0973L23.4957 14.0749L22.7754 13.9697L18.5114 13.3542L17.913 12.1456L16.2441 8.78821V8.7994V20.3085L16.7339 20.5636L20.752 22.6653C20.752 22.5937 20.752 22.5221 20.752 22.4415L20.67 22.0341Z" fill="url(#paint2_linear)"/>
<defs>
<linearGradient id="paint0_linear" x1="3.20625" y1="29.0756" x2="30.7555" y2="1.79724" gradientUnits="userSpaceOnUse">
<stop stop-color="#F58B1F"/>
<stop offset="0.49" stop-color="#ED6723"/>
<stop offset="1" stop-color="#EE3E30"/>
</linearGradient>
<linearGradient id="paint1_linear" x1="39.9759" y1="1.81379" x2="-0.692225" y2="30.179" gradientUnits="userSpaceOnUse">
<stop stop-color="#C41E51"/>
<stop offset="0.17" stop-color="#B41D4A"/>
<stop offset="0.43" stop-color="#A21B43"/>
<stop offset="0.7" stop-color="#971A3E"/>
<stop offset="1" stop-color="#931A3D"/>
</linearGradient>
<linearGradient id="paint2_linear" x1="624.56" y1="2473.92" x2="867.154" y2="2473.92" gradientUnits="userSpaceOnUse">
<stop stop-color="#F58B1F"/>
<stop offset="0.49" stop-color="#ED6723"/>
<stop offset="1" stop-color="#EE3E30"/>
</linearGradient>
</defs>
</svg>
