<svg width="75" height="75" viewBox="0 0 75 75" fill="none" xmlns="http://www.w3.org/2000/svg">
<path d="M71.5529 34.0529C70.0364 34.0529 68.7463 35.0379 68.2863 36.4014H58.5322C57.9776 25.661 49.339 17.0225 38.5986 16.4678V6.71367C39.9621 6.25386 40.9471 4.96377 40.9471 3.44707C40.9471 1.54644 39.4008 0 37.5 0C35.5992 0 34.0529 1.54644 34.0529 3.44707C34.0529 4.96377 35.0379 6.25371 36.4014 6.71367V16.4678C25.661 17.0224 17.0225 25.661 16.4678 36.4014H6.71367C6.25386 35.0379 4.96377 34.0529 3.44707 34.0529C1.54644 34.0529 0 35.5992 0 37.5C0 39.4008 1.54644 40.9471 3.44707 40.9471C4.96377 40.9471 6.25371 39.9621 6.71367 38.5986H16.4678C17.0224 49.339 25.661 57.9775 36.4014 58.5322V68.2863C35.0379 68.7461 34.0529 70.0362 34.0529 71.5529C34.0529 73.4536 35.5992 75 37.5 75C39.4008 75 40.9471 73.4536 40.9471 71.5529C40.9471 70.0362 39.9621 68.7463 38.5986 68.2863V58.5322C49.339 57.9776 57.9775 49.339 58.5322 38.5986H68.2863C68.7461 39.9621 70.0362 40.9471 71.5529 40.9471C73.4536 40.9471 75 39.4008 75 37.5C75 35.5992 73.4536 34.0529 71.5529 34.0529ZM3.44707 38.7498C2.75786 38.7498 2.19727 38.1891 2.19727 37.5C2.19727 36.8109 2.75801 36.2502 3.44707 36.2502C4.13613 36.2502 4.69688 36.8109 4.69688 37.5C4.69688 38.1891 4.13628 38.7498 3.44707 38.7498ZM36.2502 3.44707C36.2502 2.75801 36.8108 2.19727 37.5 2.19727C38.1892 2.19727 38.7498 2.75801 38.7498 3.44707C38.7498 4.13613 38.1891 4.69688 37.5 4.69688C36.8109 4.69688 36.2502 4.13613 36.2502 3.44707ZM38.7498 71.5529C38.7498 72.242 38.1892 72.8027 37.5 72.8027C36.8108 72.8027 36.2502 72.242 36.2502 71.5529C36.2502 70.8639 36.8109 70.3031 37.5 70.3031C38.1891 70.3031 38.7498 70.8639 38.7498 71.5529ZM37.5 56.3634C27.0987 56.3634 18.6366 47.9013 18.6366 37.5C18.6366 27.0987 27.0987 18.6366 37.5 18.6366C47.9013 18.6366 56.3634 27.0987 56.3634 37.5C56.3634 47.9013 47.9013 56.3634 37.5 56.3634ZM71.5529 38.7498C70.8637 38.7498 70.3031 38.1891 70.3031 37.5C70.3031 36.8109 70.8639 36.2502 71.5529 36.2502C72.242 36.2502 72.8027 36.8108 72.8027 37.5C72.8027 38.1892 72.242 38.7498 71.5529 38.7498Z" fill="white"/>
<path d="M45.8316 39.7232L42.1723 38.2311C42.1433 38.2193 42.1247 38.1912 42.1247 38.1596V35.9011C42.1247 35.8914 42.1235 35.8818 42.1232 35.8723C42.861 34.8805 43.2997 33.6455 43.2997 32.3076V28.7142C43.2997 26.1147 40.6979 24 37.5001 24C34.3022 24 31.7004 26.1147 31.7004 28.7142V32.3076C31.7004 33.6455 32.1391 34.8805 32.8769 35.8723C32.8766 35.882 32.8755 35.8914 32.8755 35.9011V38.1596C32.8755 38.1912 32.8568 38.2193 32.8278 38.2311L29.1685 39.7232C27.8512 40.2602 27 41.5419 27 42.988V46.6815C27 47.96 28.0203 49 29.2745 49H38.6748C39.282 49 39.7743 48.4982 39.7743 47.8793C39.7743 47.2604 39.282 46.7586 38.6748 46.7586H29.2745C29.2327 46.7586 29.1988 46.7241 29.1988 46.6815V42.988C29.1988 42.4637 29.5074 41.999 29.9852 41.8043L33.6446 40.3122C34.5132 39.9579 35.0743 39.1131 35.0743 38.1596V37.6756C35.813 38.0237 36.6343 38.2196 37.5001 38.2196C38.3658 38.2196 39.1873 38.0239 39.9258 37.6756V38.1596C39.9258 39.1131 40.487 39.9581 41.3555 40.3122L45.015 41.8044C45.4926 41.9991 45.8012 42.4637 45.8012 42.988V46.6815C45.8012 46.7241 45.7673 46.7586 45.7255 46.7586H43.3751C42.7679 46.7586 42.2757 47.2604 42.2757 47.8793C42.2757 48.4982 42.7679 49 43.3751 49H45.7255C46.9797 49 48 47.96 48 46.6815V42.988C48.0001 41.5417 47.1489 40.2602 45.8316 39.7232ZM41.1009 32.3075C41.1009 34.3315 39.4855 35.978 37.5001 35.978C35.5147 35.978 33.8992 34.3313 33.8992 32.3075V28.714C33.8992 27.3736 35.5482 26.2413 37.5001 26.2413C39.4519 26.2413 41.1009 27.3736 41.1009 28.714V32.3075Z" fill="white"/>
<path d="M33.9796 12.9033C33.863 12.2994 33.2787 11.9046 32.6748 12.0208C27.5567 13.0088 22.8939 15.4882 19.191 19.1914C15.488 22.8944 13.0084 27.5571 12.0203 32.6754C11.9039 33.2793 12.2989 33.8636 12.9029 33.9801C12.9742 33.9938 13.0452 34.0005 13.1153 34.0005C13.6383 34.0005 14.1049 33.6303 14.2077 33.0976C15.1111 28.4178 17.3789 24.1539 20.7662 20.7666C24.1534 17.3793 28.4173 15.1115 33.097 14.2081C33.701 14.0915 34.0962 13.5073 33.9796 12.9033Z" fill="white"/>
<path d="M62.9796 32.6754C61.9916 27.5571 59.512 22.8944 55.809 19.1913C52.106 15.4882 47.4432 13.0087 42.3251 12.0207C41.7211 11.9048 41.1371 12.2993 41.0203 12.9033C40.9039 13.5072 41.2989 14.0915 41.9029 14.208C46.5826 15.1114 50.8465 17.3793 54.2338 20.7666C57.6211 24.1539 59.8889 28.4178 60.7923 33.0976C60.895 33.6303 61.3616 34.0005 61.8847 34.0005C61.9546 34.0005 62.0258 33.9938 62.097 33.9801C62.701 33.8636 63.0962 33.2793 62.9796 32.6754Z" fill="white"/>
<path d="M33.0971 60.7921C28.4174 59.8887 24.1535 57.6209 20.7662 54.2336C17.3789 50.8463 15.1111 46.5824 14.2077 41.9026C14.0912 41.2987 13.5065 40.9038 12.903 41.0201C12.299 41.1366 11.9038 41.7209 12.0204 42.3248C13.0084 47.443 15.488 52.1056 19.191 55.8088C22.8941 59.5118 27.5568 61.9914 32.6749 62.9794C32.7462 62.9931 32.8171 62.9998 32.8872 62.9998C33.4103 62.9998 33.8769 62.6295 33.9797 62.0968C34.0961 61.4929 33.7011 60.9086 33.0971 60.7921Z" fill="white"/>
<path d="M62.0971 41.0199C61.4931 40.9042 60.909 41.2984 60.7923 41.9025C59.8889 46.5823 57.6211 50.8462 54.2338 54.2335C50.8466 57.6208 46.5827 59.8887 41.903 60.792C41.299 60.9086 40.9038 61.4929 41.0204 62.0968C41.1232 62.6295 41.5898 62.9998 42.1128 62.9998C42.1827 62.9998 42.2539 62.9931 42.3252 62.9794C47.4433 61.9914 52.1059 59.5118 55.809 55.8087C59.512 52.1055 61.9916 47.4429 62.9797 42.3247C63.0961 41.7207 62.7011 41.1365 62.0971 41.0199Z" fill="white"/>
</svg>
