<svg width="831" height="1256" viewBox="0 0 831 1256" fill="none" xmlns="http://www.w3.org/2000/svg">
<path d="M422.098 806.251C496.294 772.893 559.275 712.852 591.677 643.171C628.2 564.409 623.222 460.701 584.45 377.63C565.003 335.779 534.431 296.811 491.969 272.549C434.735 239.715 382.498 243.932 319.634 237.554C307.746 236.262 296.007 234.661 284.194 231.881C208.287 213.756 150.074 154.55 86.4561 109.337C63.0556 92.6469 37.4843 77.3976 9.444 72.208C-19.7801 66.8345 -49.624 72.9746 -74.7097 85.5757C-115.311 105.821 -144.497 141.227 -163.819 180.388C-186.571 226.292 -191.789 278.088 -213.628 323.856C-236.726 372.263 -258.789 421.163 -279.914 470.32C-321.818 567.467 -359.506 666.434 -390.511 767.829C-393.424 777.487 -396.214 787.774 -392.665 797.658C-389.535 806.199 -382.163 812.955 -374.914 819.081C-308.734 877.135 -234.71 926.743 -156.071 968.457C-80.9836 1008.29 8.55306 1060.92 95.0993 1046.97C117.568 1043.41 139.052 1033.47 152.4 1016.6C170.311 993.722 167.483 965.896 172.226 938.636C176.919 911.923 190.712 887.458 212.519 870.625C260.672 833.222 328.395 838.299 385.791 820.164C397.95 816.442 410.209 811.625 422.098 806.251Z" fill="url(#paint0_linear)"/>
<mask id="mask0" mask-type="alpha" maskUnits="userSpaceOnUse" x="-471" y="0" width="1189" height="1202">
<path d="M422.098 806.251C496.294 772.893 559.275 712.852 591.677 643.171C628.2 564.409 623.222 460.701 584.45 377.63C565.003 335.779 534.431 296.811 491.969 272.549C434.735 239.715 382.498 243.932 319.634 237.554C307.746 236.262 296.007 234.661 284.194 231.881C208.287 213.756 150.074 154.55 86.4561 109.337C63.0556 92.6469 37.4843 77.3976 9.444 72.208C-19.7801 66.8345 -49.624 72.9746 -74.7097 85.5757C-115.311 105.821 -144.497 141.227 -163.819 180.388C-186.571 226.292 -191.789 278.088 -213.628 323.856C-236.726 372.263 -258.789 421.163 -279.914 470.32C-321.818 567.467 -359.506 666.434 -390.511 767.829C-393.424 777.487 -396.214 787.774 -392.665 797.658C-389.535 806.199 -382.163 812.955 -374.914 819.081C-308.734 877.135 -234.71 926.743 -156.071 968.457C-80.9836 1008.29 8.55306 1060.92 95.0993 1046.97C117.568 1043.41 139.052 1033.47 152.4 1016.6C170.311 993.722 167.483 965.896 172.226 938.636C176.919 911.923 190.712 887.458 212.519 870.625C260.672 833.222 328.395 838.299 385.791 820.164C397.95 816.442 410.209 811.625 422.098 806.251Z" fill="url(#paint1_linear)"/>
</mask>
<g mask="url(#mask0)">
<ellipse cx="139.501" cy="822.001" rx="54.5" ry="58" fill="#F6E4E4"/>
<ellipse cx="537.501" cy="692.001" rx="54.5" ry="58" fill="#F6E4E4"/>
<ellipse cx="224.501" cy="804.001" rx="54.5" ry="58" fill="#F6E4E4"/>
<ellipse cx="71.0006" cy="954.5" rx="113" ry="120.5" fill="#F6E4E4"/>
<ellipse cx="322.501" cy="804.001" rx="54.5" ry="58" fill="#F6E4E4"/>
<ellipse cx="392.501" cy="783.001" rx="54.5" ry="58" fill="#F6E4E4"/>
<ellipse cx="170.501" cy="880.001" rx="54.5" ry="58" fill="#F6E4E4"/>
<ellipse cx="467.001" cy="725.001" rx="84" ry="89" fill="#F6E4E4"/>
<path d="M281.288 700.882L254.587 700.976L256.257 1176.19L282.958 1176.1L281.288 700.882Z" fill="white"/>
<path d="M302.981 700.78L291.081 700.822L292.75 1176.04L304.651 1176L302.981 700.78Z" fill="white"/>
<path d="M244.697 701.035L232.796 701.076L234.466 1176.29L246.366 1176.25L244.697 701.035Z" fill="white"/>
</g>
<path d="M260.113 692.3C253.913 689.6 247.613 687.2 241.113 685.3C234.413 683.3 227.013 681.3 222.013 676.8L219.213 695.6C219.113 695.8 219.113 696 219.113 696.2C219.113 702 240.913 706.7 267.813 706.9C270.313 706.9 272.713 706.9 275.113 706.8C274.413 704.5 273.413 702.3 271.913 700.3C269.013 696.5 264.513 694.3 260.113 692.3Z" fill="#F1AFB1"/>
<path d="M316.713 696.7C316.713 696.5 316.713 696.3 316.613 696.1L306.313 622.3L230.113 621.9L222.013 676.8C227.013 681.3 234.413 683.3 241.113 685.3C247.613 687.2 253.913 689.6 260.113 692.3C264.513 694.2 269.013 696.5 271.913 700.3C273.413 702.2 274.413 704.4 275.113 706.8C298.713 706.2 316.713 701.9 316.713 696.7Z" fill="#B64D69"/>
<path d="M190.113 496.9C192.113 537.1 192.513 577.4 183.813 616.5C180.313 632.2 175.413 647.7 167.113 661.4C161.313 671 153.813 679.6 144.813 686.2L145.613 717.7C168.713 717.8 188.513 703.6 193.513 683.2L239.313 497.2L190.113 496.9Z" fill="#B64D69"/>
<path d="M167.213 661.4C175.513 647.7 180.513 632.2 183.913 616.5C192.613 577.4 192.213 537 190.213 496.9H186.613C160.813 496.7 140.413 516.3 141.013 540.4L144.813 686.2C153.913 679.6 161.413 670.9 167.213 661.4Z" fill="#E5959D"/>
<path d="M374.713 574.9C376.513 552.4 378.313 529.9 380.213 507.5C372.413 501.4 362.413 497.7 351.313 497.7L298.513 497.5L341.013 677.6C351.013 667.7 358.513 655 363.313 641.8C371.013 620.4 372.913 597.5 374.713 574.9Z" fill="#E5959D"/>
<path d="M380.113 507.5C378.313 530 376.513 552.5 374.613 574.9C372.813 597.5 370.913 620.3 363.113 641.6C358.213 654.9 350.813 667.6 340.813 677.4L342.313 683.8C347.113 704.2 366.813 718.6 389.913 718.7L396.213 541.5C396.813 527.9 390.513 515.6 380.113 507.5Z" fill="#B64D69"/>
<path d="M249.013 654.3C230.813 652.5 215.913 648.3 208.513 642.9L209.913 658.3C210.313 664 219.713 669 233.813 672.1C235.613 668.6 237.813 665.3 240.513 662.4C243.113 659.5 246.113 656.9 249.013 654.3Z" fill="#F1AFB1"/>
<path d="M315.013 649.4C313.913 649.7 312.813 650.1 311.713 650.4C309.413 651 306.913 651.6 304.313 652.1C301.713 652.6 299.013 653.1 296.213 653.5C287.713 654.7 278.213 655.4 268.213 655.3C261.613 655.3 255.213 654.9 249.113 654.3C246.113 656.9 243.213 659.5 240.513 662.5C237.813 665.4 235.613 668.7 233.813 672.2C243.413 674.4 255.313 675.6 268.013 675.7C299.513 675.8 325.513 668.4 326.313 658.9L327.813 643.5C326.613 644.4 325.113 645.2 323.513 646C321.113 647.2 318.213 648.4 315.013 649.4Z" fill="#AE435F"/>
<path d="M260.213 642.7C266.613 633.7 268.513 622.3 270.113 611.4C280.313 541.2 284.213 470 281.813 399.1C277.713 399.3 273.613 399.5 269.313 399.4C246.213 399.3 225.113 395 210.213 388.9C197.913 432.3 193.713 475.6 197.213 515.6L208.513 642.8C215.913 648.2 230.813 652.4 249.013 654.2C253.113 650.7 257.113 647.1 260.213 642.7Z" fill="white"/>
<path d="M328.513 389.5C316.313 394.4 300.013 398 281.813 399.1C284.113 470 280.213 541.2 270.113 611.4C268.513 622.3 266.613 633.7 260.213 642.7C257.113 647.1 253.113 650.7 249.013 654.3C255.013 654.9 261.513 655.2 268.113 655.3C278.113 655.3 287.613 654.7 296.113 653.5C298.913 653.1 301.613 652.6 304.213 652.1C306.813 651.6 309.213 651 311.613 650.4C312.813 650.1 313.913 649.8 314.913 649.4C318.113 648.4 321.013 647.3 323.513 646C325.113 645.2 326.613 644.3 327.813 643.5L340.313 516.4C344.213 476.4 340.413 433.1 328.513 389.5Z" fill="#D2D3D3"/>
<path d="M281.813 399.1C280.313 354 276.313 308.9 269.813 264.3C242.113 303.8 222.313 346.4 210.313 389C225.213 395.1 246.213 399.4 269.413 399.5C273.613 399.5 277.713 399.3 281.813 399.1Z" fill="#F1AFB1"/>
<path d="M328.513 389.5C316.913 346.8 297.413 303.9 270.013 264C269.913 264.1 269.913 264.2 269.813 264.3C276.313 309 280.313 354 281.813 399.1C300.013 398 316.313 394.4 328.513 389.5Z" fill="#B64D69"/>
<path opacity="0.21" d="M311.113 458.1C302.013 449.9 290.113 444.9 276.913 444.8C248.513 444.7 225.413 467.6 225.313 496C225.213 506.7 228.513 516.6 234.013 524.8C243.213 538.5 258.813 547.5 276.513 547.6C304.913 547.7 328.013 524.8 328.113 496.4C328.113 481.2 321.513 467.5 311.113 458.1Z" fill="black"/>
<path d="M287.513 496.8C298.813 482.9 303.713 464.7 303.413 446.8C294.313 438.6 282.413 433.6 269.213 433.5C240.813 433.4 217.713 456.3 217.613 484.7C217.513 495.4 220.813 505.3 226.313 513.5C230.313 515 234.313 516.3 238.513 517C256.713 520 275.813 511.1 287.513 496.8Z" fill="#F1AFB1"/>
<path d="M303.413 446.7C303.613 464.6 298.713 482.9 287.513 496.7C275.813 511.1 256.713 519.9 238.413 516.8C234.213 516.1 230.213 514.8 226.213 513.3C235.413 527 251.013 536 268.713 536.1C297.113 536.2 320.213 513.3 320.313 484.9C320.413 469.9 313.913 456.2 303.413 446.7Z" fill="#B64D69"/>
<path d="M279.213 446.1L229.313 490.8C229.713 493.5 230.413 496.2 231.313 498.7L286.813 449C284.413 447.8 281.813 446.8 279.213 446.1Z" fill="white"/>
<path d="M286.813 449L231.313 498.7C232.613 502.2 234.313 505.4 236.413 508.3L295.813 455.1C293.113 452.7 290.113 450.6 286.813 449Z" fill="#D7D7D7"/>
<path d="M269.113 444.8C247.013 444.7 228.913 462.6 228.813 484.7C228.813 486.8 228.913 488.8 229.213 490.8L279.113 446.1C276.013 445.2 272.613 444.8 269.113 444.8Z" fill="#D7D7D7"/>
<path d="M307.813 494.6L274.313 524.6C290.713 522.4 303.913 510.3 307.813 494.6Z" fill="white"/>
<path d="M309.013 485C309.013 480.5 308.313 476.2 306.913 472.1L252.113 521.2C257.113 523.5 262.813 524.8 268.713 524.9C270.613 524.9 272.513 524.8 274.313 524.5L307.813 494.5C308.613 491.5 309.013 488.3 309.013 485Z" fill="#D7D7D7"/>
<path d="M295.813 455.1L236.413 508.3C240.413 513.9 245.813 518.3 252.113 521.2L306.913 472.1C304.813 465.6 300.913 459.7 295.813 455.1Z" fill="white"/>
<defs>
<linearGradient id="paint0_linear" x1="566.643" y1="422.606" x2="-223.362" y2="885.54" gradientUnits="userSpaceOnUse">
<stop stop-color="#D5806E"/>
<stop offset="1" stop-color="#F7455E"/>
</linearGradient>
<linearGradient id="paint1_linear" x1="566.643" y1="422.606" x2="-223.362" y2="885.54" gradientUnits="userSpaceOnUse">
<stop stop-color="#D5806E"/>
<stop offset="1" stop-color="#F7455E"/>
</linearGradient>
</defs>
</svg>
