<svg width="2169" height="3054" viewBox="0 0 2169 3054" fill="none" xmlns="http://www.w3.org/2000/svg">
<path d="M784.636 2301.03C919.301 2240.48 1033.61 2131.51 1092.42 2005.04C1158.71 1862.08 1149.68 1673.85 1079.31 1523.08C1044.01 1447.12 988.522 1376.39 911.451 1332.35C807.572 1272.76 712.761 1280.41 598.662 1268.84C577.086 1266.49 555.78 1263.59 534.339 1258.54C396.566 1225.64 290.909 1118.19 175.442 1036.12C132.97 1005.83 86.5583 978.153 35.6648 968.734C-17.3773 958.981 -71.5441 970.125 -117.075 992.996C-190.766 1029.74 -243.739 1094 -278.809 1165.08C-320.104 1248.4 -329.575 1342.41 -369.213 1425.48C-411.137 1513.34 -451.18 1602.09 -489.522 1691.31C-565.579 1867.63 -633.983 2047.26 -690.257 2231.29C-695.544 2248.82 -700.607 2267.49 -694.167 2285.43C-688.486 2300.93 -675.105 2313.2 -661.948 2324.31C-541.832 2429.68 -407.477 2519.72 -264.747 2595.43C-128.462 2667.72 34.0477 2763.25 191.13 2737.94C231.911 2731.48 270.905 2713.44 295.131 2682.82C327.641 2641.29 322.507 2590.79 331.115 2541.31C339.634 2492.82 364.669 2448.42 404.248 2417.87C491.645 2349.98 614.563 2359.2 718.737 2326.28C740.807 2319.53 763.057 2310.78 784.636 2301.03Z" fill="url(#paint0_linear)"/>
<path d="M784.636 2301.03C919.301 2240.48 1033.61 2131.51 1092.42 2005.04C1158.71 1862.08 1149.68 1673.85 1079.31 1523.08C1044.01 1447.12 988.522 1376.39 911.451 1332.35C807.572 1272.76 712.761 1280.41 598.662 1268.84C577.086 1266.49 555.78 1263.59 534.339 1258.54C396.566 1225.64 290.909 1118.19 175.442 1036.12C132.97 1005.83 86.5583 978.153 35.6648 968.734C-17.3773 958.981 -71.5441 970.125 -117.075 992.996C-190.766 1029.74 -243.739 1094 -278.809 1165.08C-320.104 1248.4 -329.575 1342.41 -369.213 1425.48C-411.137 1513.34 -451.18 1602.09 -489.522 1691.31C-565.579 1867.63 -633.983 2047.26 -690.257 2231.29C-695.544 2248.82 -700.607 2267.49 -694.167 2285.43C-688.486 2300.93 -675.105 2313.2 -661.948 2324.31C-541.832 2429.68 -407.477 2519.72 -264.747 2595.43C-128.462 2667.72 34.0477 2763.25 191.13 2737.94C231.911 2731.48 270.905 2713.44 295.131 2682.82C327.641 2641.29 322.507 2590.79 331.115 2541.31C339.634 2492.82 364.669 2448.42 404.248 2417.87C491.645 2349.98 614.563 2359.2 718.737 2326.28C740.807 2319.53 763.057 2310.78 784.636 2301.03Z" fill="url(#paint1_linear)"/>
<path d="M490.737 2094.25C479.484 2089.34 468.049 2084.99 456.251 2081.54C444.091 2077.91 430.66 2074.28 421.585 2066.11L416.503 2100.23C416.321 2100.6 416.321 2100.96 416.321 2101.32C416.321 2111.85 455.888 2120.38 504.712 2120.74C509.25 2120.74 513.606 2120.74 517.962 2120.56C516.691 2116.39 514.876 2112.4 512.154 2108.77C506.89 2101.87 498.723 2097.88 490.737 2094.25Z" fill="#F1AFB1"/>
<path d="M593.466 2102.23C593.466 2101.87 593.466 2101.51 593.285 2101.14L574.59 1967.19L436.287 1966.47L421.585 2066.11C430.66 2074.28 444.091 2077.91 456.252 2081.54C468.049 2084.99 479.484 2089.34 490.737 2094.25C498.723 2097.69 506.89 2101.87 512.154 2108.77C514.876 2112.21 516.691 2116.21 517.962 2120.56C560.796 2119.47 593.466 2111.67 593.466 2102.23Z" fill="#B64D69"/>
<path d="M363.687 1739.59C367.317 1812.56 368.043 1885.7 352.252 1956.67C345.9 1985.16 337.006 2013.3 321.942 2038.16C311.414 2055.59 297.802 2071.19 281.467 2083.17L282.919 2140.35C324.846 2140.53 360.783 2114.76 369.858 2077.73L452.985 1740.14L363.687 1739.59Z" fill="#B64D69"/>
<path d="M322.122 2038.16C337.186 2013.3 346.261 1985.16 352.432 1956.67C368.223 1885.7 367.497 1812.37 363.867 1739.59H357.333C310.506 1739.23 273.479 1774.8 274.568 1818.55L281.465 2083.17C297.982 2071.19 311.595 2055.4 322.122 2038.16Z" fill="#E5959D"/>
<path d="M698.736 1881.16C702.003 1840.33 705.27 1799.49 708.719 1758.83C694.562 1747.76 676.412 1741.05 656.265 1741.05L560.433 1740.68L637.571 2067.57C655.721 2049.6 669.333 2026.55 678.045 2002.59C692.021 1963.75 695.469 1922.18 698.736 1881.16Z" fill="#E5959D"/>
<path d="M708.536 1758.83C705.269 1799.67 702.002 1840.51 698.553 1881.16C695.286 1922.18 691.838 1963.57 677.681 2002.23C668.787 2026.36 655.356 2049.42 637.206 2067.2L639.929 2078.82C648.641 2115.84 684.396 2141.98 726.323 2142.16L737.758 1820.54C738.847 1795.86 727.412 1773.53 708.536 1758.83Z" fill="#B64D69"/>
<path d="M470.591 2025.28C437.558 2022.01 410.514 2014.39 397.083 2004.58L399.624 2032.54C400.35 2042.88 417.411 2051.96 443.003 2057.58C446.27 2051.23 450.263 2045.24 455.163 2039.98C459.882 2034.71 465.327 2029.99 470.591 2025.28Z" fill="#F1AFB1"/>
<path d="M590.381 2016.38C588.384 2016.93 586.388 2017.65 584.391 2018.2C580.217 2019.28 575.679 2020.37 570.96 2021.28C566.241 2022.19 561.341 2023.1 556.259 2023.82C540.831 2026 523.588 2027.27 505.438 2027.09C493.459 2027.09 481.843 2026.36 470.772 2025.27C465.327 2029.99 460.063 2034.71 455.163 2040.16C450.262 2045.42 446.269 2051.41 443.002 2057.76C460.426 2061.76 482.025 2063.93 505.075 2064.12C562.248 2064.3 609.438 2050.87 610.89 2033.62L613.613 2005.67C611.435 2007.31 608.712 2008.76 605.808 2010.21C601.452 2012.39 596.189 2014.57 590.381 2016.38Z" fill="#AE435F"/>
<path d="M490.919 2004.22C502.535 1987.89 505.983 1967.19 508.887 1947.41C527.4 1820 534.479 1690.77 530.123 1562.08C522.681 1562.45 515.24 1562.81 507.435 1562.63C465.509 1562.45 427.212 1554.64 400.168 1543.57C377.844 1622.34 370.221 1700.93 376.573 1773.53L397.083 2004.4C410.514 2014.2 437.557 2021.83 470.591 2025.09C478.032 2018.74 485.292 2012.21 490.919 2004.22Z" fill="white"/>
<path d="M614.883 1544.66C592.74 1553.56 563.155 1560.09 530.122 1562.09C534.297 1690.77 527.218 1820 508.887 1947.41C505.983 1967.2 502.534 1987.89 490.918 2004.22C485.291 2012.21 478.031 2018.74 470.59 2025.28C481.48 2026.36 493.277 2026.91 505.257 2027.09C523.407 2027.09 540.649 2026 556.077 2023.82C561.159 2023.1 566.059 2022.19 570.778 2021.28C575.497 2020.38 579.853 2019.29 584.209 2018.2C586.387 2017.65 588.384 2017.11 590.199 2016.38C596.007 2014.57 601.27 2012.57 605.808 2010.21C608.712 2008.76 611.435 2007.13 613.613 2005.67L636.3 1774.99C643.379 1702.39 636.482 1623.8 614.883 1544.66Z" fill="#D2D3D3"/>
<path d="M530.123 1562.09C527.4 1480.23 520.14 1398.37 508.343 1317.42C458.067 1389.11 422.13 1466.43 400.35 1543.75C427.393 1554.83 465.508 1562.63 507.617 1562.81C515.24 1562.81 522.681 1562.45 530.123 1562.09Z" fill="#F1AFB1"/>
<path d="M614.884 1544.66C593.83 1467.16 558.437 1389.3 508.706 1316.88C508.524 1317.06 508.524 1317.24 508.343 1317.42C520.14 1398.55 527.4 1480.23 530.123 1562.08C563.156 1560.09 592.741 1553.55 614.884 1544.66Z" fill="#B64D69"/>
<path opacity="0.21" d="M583.302 1669.17C566.786 1654.29 545.187 1645.21 521.229 1645.03C469.683 1644.85 427.756 1686.41 427.574 1737.96C427.393 1757.38 433.382 1775.35 443.365 1790.23C460.063 1815.1 488.377 1831.43 520.503 1831.61C572.049 1831.8 613.976 1790.23 614.157 1738.69C614.157 1711.1 602.178 1686.23 583.302 1669.17Z" fill="black"/>
<path d="M540.467 1739.41C560.977 1714.18 569.87 1681.15 569.326 1648.66C552.809 1633.78 531.21 1624.7 507.252 1624.52C455.706 1624.34 413.779 1665.9 413.598 1717.45C413.416 1736.87 419.406 1754.84 429.388 1769.72C436.648 1772.45 443.908 1774.8 451.531 1776.08C484.565 1781.52 519.231 1765.37 540.467 1739.41Z" fill="#F1AFB1"/>
<path d="M569.328 1648.48C569.691 1680.97 560.797 1714.18 540.469 1739.23C519.233 1765.37 484.567 1781.34 451.352 1775.71C443.729 1774.44 436.469 1772.08 429.209 1769.36C445.907 1794.23 474.221 1810.56 506.347 1810.74C557.893 1810.92 599.82 1769.36 600.001 1717.81C600.183 1690.59 588.385 1665.72 569.328 1648.48Z" fill="#B64D69"/>
<path d="M525.404 1647.39L434.835 1728.52C435.561 1733.42 436.831 1738.32 438.465 1742.86L539.198 1652.65C534.842 1650.48 530.123 1648.66 525.404 1647.39Z" fill="white"/>
<path d="M539.198 1652.65L438.465 1742.86C440.824 1749.21 443.91 1755.02 447.721 1760.28L555.533 1663.72C550.632 1659.37 545.187 1655.56 539.198 1652.65Z" fill="#D7D7D7"/>
<path d="M507.071 1645.03C466.959 1644.85 434.107 1677.34 433.926 1717.45C433.926 1721.26 434.107 1724.89 434.652 1728.52L525.221 1647.39C519.594 1645.76 513.423 1645.03 507.071 1645.03Z" fill="#D7D7D7"/>
<path d="M577.313 1735.42L516.51 1789.87C546.276 1785.88 570.234 1763.91 577.313 1735.42Z" fill="white"/>
<path d="M579.491 1717.99C579.491 1709.83 578.22 1702.02 575.679 1694.58L476.217 1783.7C485.292 1787.87 495.637 1790.23 506.346 1790.41C509.794 1790.41 513.243 1790.23 516.51 1789.69L577.313 1735.24C578.765 1729.79 579.491 1723.98 579.491 1717.99Z" fill="#D7D7D7"/>
<path d="M555.534 1663.73L447.723 1760.28C454.983 1770.45 464.784 1778.43 476.218 1783.7L575.681 1694.58C571.869 1682.78 564.791 1672.07 555.534 1663.73Z" fill="white"/>
<mask id="mask0" mask-type="alpha" maskUnits="userSpaceOnUse" x="-835" y="837" width="2156" height="2182">
<path d="M784.741 2301.07C919.407 2240.52 1033.72 2131.55 1092.53 2005.08C1158.82 1862.12 1149.78 1673.89 1079.41 1523.12C1044.11 1447.16 988.627 1376.43 911.557 1332.39C807.677 1272.8 712.866 1280.45 598.767 1268.88C577.192 1266.53 555.885 1263.63 534.445 1258.58C396.672 1225.68 291.015 1118.22 175.548 1036.16C133.076 1005.87 86.6637 978.192 35.7703 968.773C-17.2718 959.02 -71.4387 970.164 -116.97 993.035C-190.66 1029.78 -243.634 1094.04 -278.703 1165.12C-319.998 1248.44 -329.469 1342.45 -369.108 1425.52C-411.031 1513.37 -451.074 1602.13 -489.417 1691.35C-565.474 1867.67 -633.877 2047.3 -690.152 2231.33C-695.439 2248.86 -700.502 2267.53 -694.061 2285.47C-688.38 2300.97 -675 2313.23 -661.842 2324.35C-541.726 2429.72 -407.371 2519.76 -264.641 2595.47C-128.357 2667.76 34.1532 2763.29 191.235 2737.98C232.017 2731.51 271.011 2713.48 295.236 2682.86C327.746 2641.33 322.612 2590.82 331.221 2541.35C339.739 2492.86 364.774 2448.46 404.354 2417.91C491.751 2350.02 614.669 2359.24 718.843 2326.32C740.913 2319.56 763.163 2310.82 784.741 2301.07Z" fill="url(#paint2_linear)"/>
</mask>
<g mask="url(#mask0)">
<ellipse cx="271.822" cy="2329.65" rx="98.918" ry="105.271" fill="#F6E4E4"/>
<ellipse cx="994.196" cy="2093.7" rx="98.918" ry="105.271" fill="#F6E4E4"/>
<ellipse cx="426.099" cy="2296.98" rx="98.918" ry="105.271" fill="#F6E4E4"/>
<ellipse cx="147.495" cy="2570.14" rx="205.096" ry="218.709" fill="#F6E4E4"/>
<ellipse cx="603.97" cy="2296.98" rx="98.918" ry="105.271" fill="#F6E4E4"/>
<ellipse cx="731.021" cy="2258.87" rx="98.918" ry="105.271" fill="#F6E4E4"/>
<ellipse cx="328.088" cy="2434.92" rx="98.918" ry="105.271" fill="#F6E4E4"/>
<ellipse cx="866.239" cy="2153.6" rx="152.461" ry="161.536" fill="#F6E4E4"/>
<path d="M529.167 2109.82L480.704 2109.99L483.735 2972.51L532.197 2972.34L529.167 2109.82Z" fill="white"/>
<path d="M568.54 2109.64L546.94 2109.71L549.971 2972.23L571.571 2972.16L568.54 2109.64Z" fill="white"/>
<path d="M462.753 2110.1L441.153 2110.17L444.184 2972.7L465.784 2972.62L462.753 2110.1Z" fill="white"/>
</g>
<defs>
<linearGradient id="paint0_linear" x1="1046.99" y1="1604.71" x2="-386.879" y2="2444.94" gradientUnits="userSpaceOnUse">
<stop stop-color="#D5806E"/>
<stop offset="1" stop-color="#F7455E"/>
</linearGradient>
<linearGradient id="paint1_linear" x1="1046.99" y1="1604.71" x2="-386.879" y2="2444.94" gradientUnits="userSpaceOnUse">
<stop stop-color="#FFBBA6"/>
<stop offset="1" stop-color="#F7455E"/>
</linearGradient>
<linearGradient id="paint2_linear" x1="1047.09" y1="1604.75" x2="-386.774" y2="2444.98" gradientUnits="userSpaceOnUse">
<stop stop-color="#FFBBA6"/>
<stop offset="1" stop-color="#F7455E"/>
</linearGradient>
</defs>
</svg>
