<svg width="768" height="1622" viewBox="0 0 768 1622" fill="none" xmlns="http://www.w3.org/2000/svg">
<path d="M379.99 1161.36C447.957 1130.8 505.651 1075.8 535.332 1011.97C568.789 939.823 564.229 844.822 528.713 768.724C510.898 730.387 482.893 694.69 443.995 672.465C391.566 642.387 343.714 646.25 286.127 640.407C275.238 639.225 264.485 637.757 253.663 635.211C184.128 618.607 130.803 564.372 72.5255 522.954C51.0894 507.666 27.6649 493.697 1.97863 488.943C-24.7921 484.02 -52.1306 489.645 -75.1103 501.188C-112.303 519.734 -139.039 552.167 -156.738 588.041C-177.58 630.092 -182.361 677.538 -202.367 719.465C-223.525 763.808 -243.736 808.603 -263.087 853.633C-301.474 942.624 -335.998 1033.28 -364.4 1126.17C-367.068 1135.01 -369.624 1144.44 -366.373 1153.49C-363.506 1161.31 -356.752 1167.5 -350.112 1173.11C-289.488 1226.3 -221.678 1271.74 -149.641 1309.95C-80.8575 1346.44 1.16248 1394.65 80.4431 1381.88C101.026 1378.61 120.706 1369.51 132.933 1354.05C149.341 1333.09 146.75 1307.6 151.095 1282.63C155.394 1258.16 168.029 1235.75 188.005 1220.33C232.116 1186.07 294.153 1190.72 346.731 1174.11C357.87 1170.7 369.099 1166.29 379.99 1161.36Z" fill="url(#paint0_linear)"/>
<path d="M379.99 1161.36C447.957 1130.8 505.651 1075.8 535.332 1011.97C568.789 939.823 564.229 844.822 528.713 768.724C510.898 730.387 482.893 694.69 443.995 672.465C391.566 642.387 343.714 646.25 286.127 640.407C275.238 639.225 264.485 637.757 253.663 635.211C184.128 618.607 130.803 564.372 72.5255 522.954C51.0894 507.666 27.6649 493.697 1.97863 488.943C-24.7921 484.02 -52.1306 489.645 -75.1103 501.188C-112.303 519.734 -139.039 552.167 -156.738 588.041C-177.58 630.092 -182.361 677.538 -202.367 719.465C-223.525 763.808 -243.736 808.603 -263.087 853.633C-301.474 942.624 -335.998 1033.28 -364.4 1126.17C-367.068 1135.01 -369.624 1144.44 -366.373 1153.49C-363.506 1161.31 -356.752 1167.5 -350.112 1173.11C-289.488 1226.3 -221.678 1271.74 -149.641 1309.95C-80.8575 1346.44 1.16248 1394.65 80.4431 1381.88C101.026 1378.61 120.706 1369.51 132.933 1354.05C149.341 1333.09 146.75 1307.6 151.095 1282.63C155.394 1258.16 168.029 1235.75 188.005 1220.33C232.116 1186.07 294.153 1190.72 346.731 1174.11C357.87 1170.7 369.099 1166.29 379.99 1161.36Z" fill="url(#paint1_linear)"/>
<path d="M231.597 1056.98C225.918 1054.51 220.146 1052.31 214.192 1050.57C208.055 1048.74 201.276 1046.9 196.696 1042.78L194.131 1060C194.039 1060.19 194.039 1060.37 194.039 1060.55C194.039 1065.87 214.009 1070.17 238.651 1070.36C240.941 1070.36 243.139 1070.36 245.338 1070.26C244.697 1068.16 243.781 1066.14 242.406 1064.31C239.75 1060.83 235.628 1058.81 231.597 1056.98Z" fill="#F1AFB1"/>
<path d="M283.445 1061.01C283.445 1060.83 283.445 1060.65 283.354 1060.46L273.919 992.858L204.116 992.492L196.696 1042.78C201.276 1046.91 208.055 1048.74 214.192 1050.57C220.146 1052.31 225.918 1054.51 231.597 1056.98C235.628 1058.72 239.75 1060.83 242.406 1064.31C243.78 1066.05 244.697 1068.07 245.338 1070.26C266.957 1069.71 283.445 1065.78 283.445 1061.01Z" fill="#B64D69"/>
<path d="M167.473 877.985C169.305 914.811 169.672 951.727 161.702 987.545C158.496 1001.93 154.007 1016.13 146.404 1028.68C141.091 1037.47 134.221 1045.35 125.976 1051.39L126.709 1080.25C147.87 1080.34 166.008 1067.33 170.588 1048.65L212.543 878.26L167.473 877.985Z" fill="#B64D69"/>
<path d="M146.496 1028.68C154.099 1016.13 158.679 1001.93 161.794 987.545C169.763 951.728 169.397 914.719 167.565 877.986H164.267C140.633 877.803 121.946 895.757 122.495 917.834L125.976 1051.39C134.312 1045.35 141.183 1037.38 146.496 1028.68Z" fill="#E5959D"/>
<path d="M336.576 949.438C338.225 928.827 339.874 908.216 341.614 887.696C334.469 882.108 325.309 878.719 315.141 878.719L266.773 878.536L305.705 1043.52C314.866 1034.45 321.736 1022.81 326.133 1010.72C333.187 991.118 334.927 970.141 336.576 949.438Z" fill="#E5959D"/>
<path d="M341.523 887.696C339.874 908.307 338.225 928.918 336.484 949.438C334.836 970.141 333.095 991.027 325.95 1010.54C321.461 1022.72 314.682 1034.36 305.522 1043.33L306.896 1049.2C311.293 1067.88 329.339 1081.07 350.5 1081.17L356.271 918.842C356.821 906.384 351.05 895.116 341.523 887.696Z" fill="#B64D69"/>
<path d="M221.429 1022.17C204.757 1020.52 191.107 1016.68 184.329 1011.73L185.611 1025.84C185.978 1031.06 194.588 1035.64 207.505 1038.48C209.154 1035.27 211.169 1032.25 213.642 1029.59C216.024 1026.94 218.772 1024.55 221.429 1022.17Z" fill="#F1AFB1"/>
<path d="M281.888 1017.68C280.88 1017.96 279.873 1018.32 278.865 1018.6C276.758 1019.15 274.468 1019.7 272.086 1020.16C269.705 1020.61 267.231 1021.07 264.666 1021.44C256.88 1022.54 248.177 1023.18 239.017 1023.09C232.971 1023.09 227.108 1022.72 221.52 1022.17C218.772 1024.55 216.116 1026.94 213.642 1029.68C211.169 1032.34 209.154 1035.36 207.505 1038.57C216.299 1040.58 227.2 1041.68 238.834 1041.78C267.689 1041.87 291.507 1035.09 292.239 1026.39L293.614 1012.28C292.514 1013.1 291.14 1013.84 289.674 1014.57C287.476 1015.67 284.819 1016.77 281.888 1017.68Z" fill="#AE435F"/>
<path d="M231.689 1011.55C237.551 1003.3 239.292 992.858 240.757 982.873C250.101 918.567 253.674 853.344 251.475 788.396C247.719 788.579 243.964 788.762 240.025 788.671C218.864 788.579 199.535 784.64 185.886 779.052C174.619 818.809 170.771 858.474 173.977 895.116L184.329 1011.64C191.108 1016.58 204.757 1020.43 221.429 1022.08C225.185 1018.87 228.849 1015.58 231.689 1011.55Z" fill="white"/>
<path d="M294.255 779.602C283.079 784.091 268.147 787.388 251.475 788.396C253.582 853.344 250.009 918.567 240.757 982.873C239.292 992.858 237.551 1003.3 231.688 1011.55C228.849 1015.58 225.185 1018.87 221.429 1022.17C226.925 1022.72 232.879 1023 238.925 1023.09C248.086 1023.09 256.788 1022.54 264.575 1021.44C267.14 1021.07 269.613 1020.61 271.995 1020.16C274.376 1019.7 276.575 1019.15 278.773 1018.6C279.873 1018.32 280.88 1018.05 281.796 1017.68C284.728 1016.77 287.384 1015.76 289.674 1014.57C291.14 1013.84 292.514 1013.01 293.613 1012.28L305.064 895.849C308.637 859.207 305.156 819.542 294.255 779.602Z" fill="#D2D3D3"/>
<path d="M251.475 788.396C250.101 747.082 246.437 705.768 240.482 664.913C215.108 701.097 196.97 740.12 185.978 779.144C199.627 784.732 218.864 788.671 240.116 788.762C243.963 788.762 247.719 788.579 251.475 788.396Z" fill="#F1AFB1"/>
<path d="M294.255 779.602C283.628 740.487 265.765 701.189 240.666 664.638C240.574 664.73 240.574 664.821 240.482 664.913C246.437 705.86 250.101 747.083 251.475 788.396C268.147 787.389 283.079 784.091 294.255 779.602Z" fill="#B64D69"/>
<path opacity="0.21" d="M278.315 842.443C269.979 834.931 259.078 830.351 246.986 830.259C220.971 830.167 199.81 851.145 199.718 877.161C199.627 886.963 202.65 896.031 207.688 903.543C216.116 916.093 230.406 924.337 246.62 924.429C272.636 924.521 293.797 903.543 293.888 877.527C293.888 863.603 287.842 851.053 278.315 842.443Z" fill="black"/>
<path d="M256.697 877.894C267.048 865.161 271.537 848.489 271.262 832.091C262.926 824.58 252.025 820 239.933 819.908C213.917 819.816 192.756 840.794 192.665 866.81C192.573 876.611 195.596 885.68 200.634 893.192C204.299 894.566 207.963 895.757 211.81 896.398C228.482 899.146 245.979 890.993 256.697 877.894Z" fill="#F1AFB1"/>
<path d="M271.262 832C271.445 848.397 266.957 865.16 256.697 877.802C245.979 890.993 228.482 899.054 211.719 896.215C207.871 895.573 204.207 894.382 200.543 893.008C208.971 905.558 223.261 913.803 239.475 913.894C265.491 913.986 286.652 893.008 286.743 866.993C286.835 853.252 280.88 840.702 271.262 832Z" fill="#B64D69"/>
<path d="M249.093 831.45L203.383 872.398C203.749 874.871 204.39 877.344 205.215 879.634L256.055 834.107C253.857 833.007 251.475 832.091 249.093 831.45Z" fill="white"/>
<path d="M256.055 834.106L205.215 879.634C206.405 882.84 207.963 885.772 209.886 888.428L264.3 839.694C261.826 837.496 259.078 835.572 256.055 834.106Z" fill="#D7D7D7"/>
<path d="M239.841 830.259C219.597 830.168 203.016 846.565 202.925 866.81C202.925 868.733 203.016 870.565 203.291 872.397L249.002 831.45C246.162 830.626 243.048 830.259 239.841 830.259Z" fill="#D7D7D7"/>
<path d="M275.292 875.878L244.605 903.36C259.628 901.345 271.72 890.26 275.292 875.878Z" fill="white"/>
<path d="M276.392 867.084C276.392 862.962 275.751 859.023 274.468 855.267L224.269 900.245C228.849 902.352 234.07 903.543 239.475 903.634C241.215 903.634 242.956 903.543 244.605 903.268L275.292 875.787C276.025 873.038 276.392 870.107 276.392 867.084Z" fill="#D7D7D7"/>
<path d="M264.3 839.694L209.887 888.428C213.551 893.558 218.498 897.589 224.269 900.245L274.468 855.267C272.544 849.313 268.972 843.908 264.3 839.694Z" fill="white"/>
<mask id="mask0" mask-type="alpha" maskUnits="userSpaceOnUse" x="-438" y="422" width="1089" height="1102">
<path d="M379.983 1161.37C447.95 1130.81 505.644 1075.81 535.326 1011.98C568.782 939.828 564.223 844.827 528.706 768.729C510.891 730.392 482.886 694.695 443.988 672.47C391.559 642.392 343.707 646.255 286.121 640.412C275.231 639.229 264.478 637.762 253.657 635.216C184.122 618.612 130.796 564.377 72.5186 522.959C51.0826 507.671 27.6581 493.701 1.97179 488.948C-24.7989 484.025 -52.1374 489.65 -75.1172 501.193C-112.31 519.739 -139.046 552.172 -156.745 588.045C-177.587 630.096 -182.367 677.543 -202.373 719.47C-223.532 763.812 -243.742 808.608 -263.094 853.638C-301.481 942.629 -336.005 1033.29 -364.407 1126.17C-367.075 1135.02 -369.631 1144.44 -366.38 1153.5C-363.513 1161.32 -356.759 1167.51 -350.119 1173.12C-289.495 1226.3 -221.685 1271.74 -149.648 1309.96C-80.8643 1346.44 1.15564 1394.65 80.4362 1381.88C101.019 1378.62 120.699 1369.51 132.926 1354.06C149.334 1333.1 146.743 1307.61 151.088 1282.64C155.387 1258.17 168.023 1235.76 187.999 1220.34C232.109 1186.07 294.146 1190.72 346.724 1174.11C357.863 1170.7 369.092 1166.29 379.983 1161.37Z" fill="url(#paint2_linear)"/>
</mask>
<g mask="url(#mask0)">
<ellipse cx="121.11" cy="1175.79" rx="49.9247" ry="53.1309" fill="#F6E4E4"/>
<ellipse cx="485.698" cy="1056.71" rx="49.9247" ry="53.1309" fill="#F6E4E4"/>
<ellipse cx="198.974" cy="1159.31" rx="49.9247" ry="53.1309" fill="#F6E4E4"/>
<ellipse cx="58.3607" cy="1297.17" rx="103.514" ry="110.384" fill="#F6E4E4"/>
<ellipse cx="288.747" cy="1159.31" rx="49.9247" ry="53.1309" fill="#F6E4E4"/>
<ellipse cx="352.87" cy="1140.07" rx="49.9247" ry="53.1309" fill="#F6E4E4"/>
<ellipse cx="149.508" cy="1228.93" rx="49.9247" ry="53.1309" fill="#F6E4E4"/>
<ellipse cx="421.116" cy="1086.94" rx="76.9481" ry="81.5284" fill="#F6E4E4"/>
<path d="M250.994 1064.84L226.535 1064.93L228.065 1500.25L252.524 1500.17L250.994 1064.84Z" fill="white"/>
<path d="M270.866 1064.75L259.965 1064.79L261.494 1500.11L272.396 1500.07L270.866 1064.75Z" fill="white"/>
<path d="M217.475 1064.98L206.573 1065.02L208.103 1500.34L219.004 1500.31L217.475 1064.98Z" fill="white"/>
</g>
<defs>
<linearGradient id="paint0_linear" x1="512.4" y1="809.924" x2="-211.283" y2="1233.99" gradientUnits="userSpaceOnUse">
<stop stop-color="#D5806E"/>
<stop offset="1" stop-color="#F7455E"/>
</linearGradient>
<linearGradient id="paint1_linear" x1="512.4" y1="809.924" x2="-211.283" y2="1233.99" gradientUnits="userSpaceOnUse">
<stop stop-color="#FFBBA6"/>
<stop offset="1" stop-color="#F7455E"/>
</linearGradient>
<linearGradient id="paint2_linear" x1="512.394" y1="809.929" x2="-211.29" y2="1234" gradientUnits="userSpaceOnUse">
<stop stop-color="#D5806E"/>
<stop offset="1" stop-color="#F7455E"/>
</linearGradient>
</defs>
</svg>
