<svg width="1560" height="2447" viewBox="0 0 1560 2447" fill="none" xmlns="http://www.w3.org/2000/svg">
<path d="M598.603 1454.34C585.572 1448.67 572.33 1443.62 558.668 1439.63C544.585 1435.43 529.032 1431.23 518.522 1421.78L512.637 1461.27C512.427 1461.69 512.427 1462.11 512.427 1462.53C512.427 1474.72 558.248 1484.59 614.788 1485.01C620.043 1485.01 625.087 1485.01 630.132 1484.8C628.66 1479.97 626.558 1475.35 623.406 1471.14C617.31 1463.16 607.852 1458.54 598.603 1454.34Z" fill="#F1AFB1"/>
<path d="M717.568 1463.58C717.568 1463.16 717.568 1462.74 717.357 1462.32L695.708 1307.29L535.546 1306.45L518.521 1421.78C529.03 1431.23 544.584 1435.43 558.666 1439.63C572.328 1443.62 585.57 1448.67 598.602 1454.34C607.85 1458.33 617.308 1463.16 623.404 1471.14C626.557 1475.14 628.659 1479.76 630.13 1484.8C679.734 1483.54 717.568 1474.51 717.568 1463.58Z" fill="#B64D69"/>
<path d="M451.457 1043.85C455.661 1128.3 456.501 1212.96 438.215 1295.1C430.859 1328.09 420.559 1360.65 403.114 1389.43C390.923 1409.59 375.159 1427.66 356.242 1441.53L357.924 1507.7C406.477 1507.91 448.094 1478.08 458.603 1435.22L554.869 1044.48L451.457 1043.85Z" fill="#B64D69"/>
<path d="M403.325 1389.43C420.77 1360.65 431.28 1328.09 438.426 1295.1C456.712 1212.96 455.871 1128.09 451.668 1043.85H444.101C389.873 1043.43 346.995 1084.61 348.256 1135.24L356.243 1441.53C375.37 1427.66 391.134 1409.38 403.325 1389.43Z" fill="#E5959D"/>
<path d="M839.481 1207.71C843.264 1160.44 847.048 1113.18 851.041 1066.12C834.647 1053.31 813.628 1045.53 790.297 1045.53L679.318 1045.11L768.648 1423.46C789.667 1402.66 805.431 1375.98 815.52 1348.25C831.704 1303.29 835.698 1255.19 839.481 1207.71Z" fill="#E5959D"/>
<path d="M850.834 1066.12C847.051 1113.39 843.267 1160.65 839.274 1207.71C835.49 1255.19 831.497 1303.08 815.102 1347.83C804.803 1375.77 789.249 1402.45 768.23 1423.04L771.383 1436.48C781.472 1479.34 822.879 1509.59 871.432 1509.8L884.674 1137.55C885.935 1108.98 872.693 1083.14 850.834 1066.12Z" fill="#B64D69"/>
<path d="M575.277 1374.51C537.023 1370.73 505.705 1361.9 490.151 1350.56L493.094 1382.91C493.935 1394.89 513.692 1405.39 543.329 1411.9C547.112 1404.55 551.736 1397.62 557.411 1391.53C562.876 1385.43 569.182 1379.97 575.277 1374.51Z" fill="#F1AFB1"/>
<path d="M713.999 1364.22C711.687 1364.85 709.375 1365.69 707.063 1366.32C702.229 1367.58 696.974 1368.84 691.509 1369.89C686.044 1370.94 680.369 1371.99 674.484 1372.83C656.618 1375.35 636.65 1376.82 615.632 1376.61C601.759 1376.61 588.307 1375.77 575.486 1374.51C569.18 1379.97 563.085 1385.43 557.41 1391.74C551.735 1397.83 547.111 1404.76 543.327 1412.11C563.505 1416.73 588.517 1419.26 615.211 1419.47C681.42 1419.68 736.069 1404.13 737.75 1384.17L740.903 1351.82C738.381 1353.71 735.228 1355.39 731.865 1357.07C726.82 1359.59 720.725 1362.11 713.999 1364.22Z" fill="#AE435F"/>
<path d="M598.819 1350.14C612.271 1331.23 616.265 1307.29 619.628 1284.39C641.067 1136.91 649.264 987.341 644.22 838.398C635.602 838.818 626.984 839.239 617.946 839.029C569.393 838.818 525.044 829.785 493.726 816.971C467.873 908.143 459.045 999.106 466.401 1083.14L490.153 1350.35C505.706 1361.69 537.024 1370.52 575.278 1374.3C583.896 1366.95 592.304 1359.38 598.819 1350.14Z" fill="white"/>
<path d="M742.377 818.231C716.734 828.525 682.474 836.088 644.22 838.399C649.054 987.342 640.857 1136.91 619.628 1284.39C616.265 1307.29 612.271 1331.23 598.819 1350.14C592.303 1359.38 583.896 1366.95 575.278 1374.51C587.89 1375.77 601.552 1376.4 615.424 1376.61C636.443 1376.61 656.411 1375.35 674.276 1372.83C680.162 1371.99 685.837 1370.94 691.302 1369.89C696.766 1368.84 701.811 1367.58 706.855 1366.32C709.378 1365.69 711.69 1365.06 713.792 1364.22C720.518 1362.12 726.613 1359.8 731.868 1357.07C735.231 1355.39 738.384 1353.5 740.906 1351.82L767.179 1084.82C775.376 1000.79 767.389 909.824 742.377 818.231Z" fill="#D2D3D3"/>
<path d="M644.217 838.399C641.065 743.655 632.657 648.911 618.995 555.218C560.773 638.197 519.156 727.689 493.934 817.181C525.251 829.996 569.391 839.029 618.154 839.239C626.982 839.239 635.6 838.819 644.217 838.399Z" fill="#F1AFB1"/>
<path d="M742.378 818.232C717.996 728.53 677.01 638.408 619.418 554.588C619.208 554.798 619.208 555.008 618.998 555.218C632.66 649.122 641.068 743.655 644.22 838.399C682.475 836.088 716.735 828.525 742.378 818.232Z" fill="#B64D69"/>
<path opacity="0.21" d="M705.805 962.343C686.678 945.117 661.666 934.613 633.921 934.403C574.228 934.193 525.675 982.3 525.465 1041.96C525.254 1064.44 532.191 1085.24 543.751 1102.46C563.088 1131.24 595.877 1150.15 633.08 1150.36C692.774 1150.57 741.327 1102.46 741.537 1042.8C741.537 1010.87 727.665 982.09 705.805 962.343Z" fill="black"/>
<path d="M656.198 1043.64C679.949 1014.44 690.248 976.208 689.618 938.605C670.491 921.379 645.478 910.875 617.734 910.665C558.041 910.455 509.487 958.562 509.277 1018.22C509.067 1040.7 516.003 1061.5 527.563 1078.72C535.971 1081.88 544.378 1084.61 553.206 1086.08C591.46 1092.38 631.606 1073.68 656.198 1043.64Z" fill="#F1AFB1"/>
<path d="M689.617 938.395C690.037 975.998 679.738 1014.44 656.197 1043.43C631.605 1073.68 591.46 1092.17 552.995 1085.66C544.168 1084.19 535.76 1081.46 527.353 1078.3C546.69 1107.08 579.479 1125.99 616.682 1126.2C676.375 1126.41 724.928 1078.3 725.139 1018.64C725.349 987.132 711.687 958.352 689.617 938.395Z" fill="#B64D69"/>
<path d="M638.752 937.134L533.869 1031.04C534.71 1036.71 536.181 1042.38 538.073 1047.63L654.727 943.226C649.682 940.705 644.217 938.604 638.752 937.134Z" fill="white"/>
<path d="M654.727 943.227L538.073 1047.63C540.806 1054.99 544.379 1061.71 548.793 1067.8L673.644 956.041C667.969 950.999 661.663 946.588 654.727 943.227Z" fill="#D7D7D7"/>
<path d="M617.525 934.403C571.073 934.193 533.03 971.797 532.819 1018.22C532.819 1022.63 533.03 1026.84 533.66 1031.04L638.543 937.134C632.028 935.244 624.881 934.403 617.525 934.403Z" fill="#D7D7D7"/>
<path d="M698.865 1039.02L628.452 1102.04C662.923 1097.42 690.668 1072 698.865 1039.02Z" fill="white"/>
<path d="M701.388 1018.85C701.388 1009.4 699.917 1000.37 696.975 991.753L581.792 1094.9C592.301 1099.73 604.282 1102.46 616.683 1102.67C620.677 1102.67 624.67 1102.46 628.454 1101.83L698.866 1038.81C700.548 1032.51 701.388 1025.79 701.388 1018.85Z" fill="#D7D7D7"/>
<path d="M673.642 956.04L548.791 1067.8C557.198 1079.56 568.549 1088.81 581.79 1094.9L696.973 991.753C692.559 978.098 684.362 965.703 673.642 956.04Z" fill="white"/>
<mask id="mask0" mask-type="alpha" maskUnits="userSpaceOnUse" x="-777" y="147" width="2125" height="2058">
<path d="M939.079 1693.72C1095.03 1623.64 1227.41 1497.51 1295.51 1351.13C1372.28 1185.67 1361.82 967.808 1280.32 793.296C1239.45 705.378 1175.19 623.515 1085.94 572.547C965.64 503.571 855.844 512.429 723.712 499.031C698.726 496.318 674.052 492.954 649.223 487.114C489.675 449.037 367.319 324.661 233.603 229.679C184.418 194.618 130.671 162.583 71.7334 151.681C10.3081 140.393 -52.4199 153.292 -105.147 179.763C-190.485 222.293 -251.83 296.673 -292.442 378.939C-340.264 475.374 -351.232 584.182 -397.136 680.331C-445.685 782.021 -492.057 884.748 -536.459 988.015C-624.537 1192.09 -703.752 1400 -768.92 1613.01C-775.043 1633.29 -780.907 1654.91 -773.448 1675.67C-766.869 1693.61 -751.374 1707.8 -736.137 1720.67C-597.036 1842.63 -441.447 1946.84 -276.158 2034.47C-118.334 2118.15 69.8607 2228.71 251.77 2199.42C298.996 2191.93 344.153 2171.05 372.208 2135.62C409.856 2087.55 403.911 2029.09 413.88 1971.83C423.744 1915.71 452.736 1864.32 498.571 1828.95C599.781 1750.38 742.127 1761.05 862.765 1722.95C888.324 1715.13 914.09 1705.01 939.079 1693.72Z" fill="url(#paint0_linear)"/>
</mask>
<g mask="url(#mask0)">
<ellipse cx="345.101" cy="1726.81" rx="114.552" ry="121.843" fill="#F6E4E4"/>
<ellipse cx="1181.64" cy="1453.71" rx="114.552" ry="121.843" fill="#F6E4E4"/>
<ellipse cx="523.756" cy="1688.99" rx="114.552" ry="121.843" fill="#F6E4E4"/>
<ellipse cx="201.121" cy="2005.15" rx="237.511" ry="253.14" fill="#F6E4E4"/>
<ellipse cx="729.742" cy="1688.99" rx="114.552" ry="121.843" fill="#F6E4E4"/>
<ellipse cx="876.872" cy="1644.88" rx="114.552" ry="121.843" fill="#F6E4E4"/>
<ellipse cx="410.257" cy="1848.65" rx="114.552" ry="121.843" fill="#F6E4E4"/>
<ellipse cx="1033.46" cy="1523.03" rx="176.557" ry="186.967" fill="#F6E4E4"/>
<path d="M643.117 1472.37L586.995 1472.56L590.505 2470.88L646.627 2470.68L643.117 1472.37Z" fill="white"/>
<path d="M688.714 1472.15L663.701 1472.24L667.211 2470.55L692.224 2470.46L688.714 1472.15Z" fill="white"/>
<path d="M566.209 1472.69L541.195 1472.77L544.705 2471.09L569.718 2471L566.209 1472.69Z" fill="white"/>
</g>
<defs>
<linearGradient id="paint0_linear" x1="1242.89" y1="887.778" x2="-417.14" y2="1861.06" gradientUnits="userSpaceOnUse">
<stop stop-color="#D5806E"/>
<stop offset="1" stop-color="#F7455E"/>
</linearGradient>
</defs>
</svg>
