<svg width="1752" height="2702" viewBox="0 0 1752 2702" fill="none" xmlns="http://www.w3.org/2000/svg">
<path d="M589.633 1931.58C702.676 1880.76 798.633 1789.28 848 1683.12C903.646 1563.12 896.062 1405.11 836.99 1278.54C807.36 1214.78 760.782 1155.41 696.086 1118.44C608.886 1068.42 529.298 1074.84 433.519 1065.12C415.407 1063.16 397.522 1060.72 379.524 1056.48C263.872 1028.87 175.18 938.662 78.2523 869.775C42.5995 844.347 3.63954 821.113 -39.0824 813.206C-83.6079 805.019 -129.078 814.374 -167.298 833.573C-229.157 864.418 -273.625 918.363 -303.063 978.027C-337.728 1047.97 -345.679 1126.88 -378.953 1196.61C-414.145 1270.37 -447.759 1344.87 -479.944 1419.77C-543.79 1567.78 -601.211 1718.56 -648.449 1873.05C-652.887 1887.76 -657.138 1903.43 -651.731 1918.49C-646.962 1931.51 -635.73 1941.8 -624.685 1951.13C-523.855 2039.58 -411.072 2115.17 -291.26 2178.72C-176.857 2239.4 -40.4399 2319.59 91.4209 2298.35C125.654 2292.92 158.387 2277.78 178.723 2252.08C206.013 2217.21 201.704 2174.82 208.93 2133.29C216.081 2092.59 237.096 2055.31 270.321 2029.67C343.685 1972.68 446.867 1980.41 534.315 1952.78C552.841 1947.11 571.519 1939.77 589.633 1931.58Z" fill="url(#paint0_linear)"/>
<path d="M589.633 1931.58C702.676 1880.76 798.633 1789.28 848 1683.12C903.646 1563.12 896.062 1405.11 836.99 1278.54C807.36 1214.78 760.782 1155.41 696.086 1118.44C608.886 1068.42 529.298 1074.84 433.519 1065.12C415.407 1063.16 397.522 1060.72 379.524 1056.48C263.872 1028.87 175.18 938.662 78.2523 869.775C42.5995 844.347 3.63954 821.113 -39.0824 813.206C-83.6079 805.019 -129.078 814.374 -167.298 833.573C-229.157 864.418 -273.625 918.363 -303.063 978.027C-337.728 1047.97 -345.679 1126.88 -378.953 1196.61C-414.145 1270.37 -447.759 1344.87 -479.944 1419.77C-543.79 1567.78 -601.211 1718.56 -648.449 1873.05C-652.887 1887.76 -657.138 1903.43 -651.731 1918.49C-646.962 1931.51 -635.73 1941.8 -624.685 1951.13C-523.855 2039.58 -411.072 2115.17 -291.26 2178.72C-176.857 2239.4 -40.4399 2319.59 91.4209 2298.35C125.654 2292.92 158.387 2277.78 178.723 2252.08C206.013 2217.21 201.704 2174.82 208.93 2133.29C216.081 2092.59 237.096 2055.31 270.321 2029.67C343.685 1972.68 446.867 1980.41 534.315 1952.78C552.841 1947.11 571.519 1939.77 589.633 1931.58Z" fill="url(#paint1_linear)"/>
<path d="M342.888 1757.99C333.441 1753.88 323.843 1750.22 313.939 1747.33C303.731 1744.28 292.457 1741.23 284.839 1734.38L280.573 1763.02C280.42 1763.32 280.42 1763.63 280.42 1763.93C280.42 1772.77 313.635 1779.93 354.619 1780.24C358.428 1780.24 362.085 1780.24 365.741 1780.08C364.675 1776.58 363.151 1773.23 360.866 1770.18C356.447 1764.39 349.591 1761.04 342.888 1757.99Z" fill="#F1AFB1"/>
<path d="M429.123 1764.69C429.123 1764.39 429.123 1764.08 428.971 1763.78L413.278 1651.34L297.18 1650.73L284.839 1734.37C292.457 1741.23 303.732 1744.28 313.94 1747.33C323.843 1750.22 333.442 1753.88 342.888 1757.99C349.592 1760.89 356.448 1764.39 360.866 1770.18C363.152 1773.07 364.675 1776.43 365.742 1780.08C401.699 1779.17 429.123 1772.62 429.123 1764.69Z" fill="#B64D69"/>
<path d="M236.237 1460.28C239.284 1521.53 239.893 1582.93 226.638 1642.5C221.306 1666.42 213.84 1690.04 201.194 1710.91C192.357 1725.54 180.931 1738.64 167.218 1748.7L168.437 1796.69C203.632 1796.84 233.799 1775.21 241.417 1744.13L311.197 1460.74L236.237 1460.28Z" fill="#B64D69"/>
<path d="M201.346 1710.91C213.992 1690.04 221.61 1666.42 226.79 1642.5C240.045 1582.93 239.436 1521.38 236.388 1460.28H230.903C191.595 1459.98 160.514 1489.84 161.428 1526.56L167.217 1748.7C181.082 1738.64 192.509 1725.39 201.346 1710.91Z" fill="#E5959D"/>
<path d="M517.491 1579.12C520.234 1544.84 522.976 1510.56 525.871 1476.43C513.987 1467.14 498.751 1461.5 481.84 1461.5L401.394 1461.2L466.147 1735.59C481.382 1720.51 492.809 1701.16 500.123 1681.05C511.854 1648.45 514.749 1613.56 517.491 1579.12Z" fill="#E5959D"/>
<path d="M525.718 1476.43C522.976 1510.71 520.233 1544.99 517.339 1579.12C514.596 1613.56 511.701 1648.29 499.817 1680.75C492.352 1701.01 481.077 1720.36 465.841 1735.29L468.127 1745.04C475.44 1776.12 505.455 1798.06 540.649 1798.21L550.248 1528.23C551.162 1507.51 541.564 1488.77 525.718 1476.43Z" fill="#B64D69"/>
<path d="M325.976 1700.09C298.247 1697.35 275.546 1690.95 264.271 1682.73L266.404 1706.19C267.013 1714.87 281.335 1722.49 302.818 1727.21C305.56 1721.88 308.912 1716.85 313.026 1712.44C316.987 1708.02 321.558 1704.06 325.976 1700.09Z" fill="#F1AFB1"/>
<path d="M426.532 1692.63C424.856 1693.09 423.18 1693.69 421.504 1694.15C418 1695.07 414.191 1695.98 410.23 1696.74C406.269 1697.5 402.155 1698.27 397.889 1698.88C384.938 1700.7 370.464 1701.77 355.228 1701.62C345.173 1701.62 335.422 1701.01 326.128 1700.09C321.557 1704.06 317.139 1708.02 313.025 1712.59C308.911 1717.01 305.559 1722.03 302.817 1727.37C317.443 1730.72 335.574 1732.55 354.924 1732.7C402.917 1732.85 442.53 1721.58 443.749 1707.1L446.034 1683.64C444.206 1685.01 441.921 1686.23 439.483 1687.45C435.826 1689.28 431.408 1691.1 426.532 1692.63Z" fill="#AE435F"/>
<path d="M343.04 1682.42C352.791 1668.71 355.686 1651.34 358.124 1634.73C373.664 1527.78 379.606 1419.3 375.95 1311.27C369.703 1311.58 363.456 1311.88 356.905 1311.73C321.71 1311.58 289.562 1305.03 266.861 1295.73C248.12 1361.86 241.721 1427.83 247.054 1488.77L264.271 1682.57C275.545 1690.8 298.247 1697.2 325.976 1699.94C332.223 1694.61 338.317 1689.12 343.04 1682.42Z" fill="white"/>
<path d="M447.102 1296.65C428.514 1304.11 403.68 1309.6 375.95 1311.28C379.455 1419.3 373.513 1527.78 358.124 1634.73C355.687 1651.34 352.792 1668.71 343.041 1682.42C338.318 1689.13 332.223 1694.61 325.977 1700.1C335.118 1701.01 345.021 1701.47 355.077 1701.62C370.313 1701.62 384.787 1700.7 397.738 1698.88C402.004 1698.27 406.117 1697.51 410.079 1696.74C414.04 1695.98 417.697 1695.07 421.353 1694.15C423.182 1693.7 424.857 1693.24 426.381 1692.63C431.257 1691.11 435.675 1689.43 439.484 1687.45C441.922 1686.23 444.207 1684.86 446.035 1683.64L465.08 1489.99C471.022 1429.05 465.233 1363.08 447.102 1296.65Z" fill="#D2D3D3"/>
<path d="M375.95 1311.27C373.664 1242.56 367.57 1173.85 357.667 1105.9C315.463 1166.08 285.296 1230.98 267.013 1295.89C289.715 1305.18 321.71 1311.73 357.057 1311.88C363.456 1311.88 369.703 1311.58 375.95 1311.27Z" fill="#F1AFB1"/>
<path d="M447.102 1296.65C429.428 1231.59 399.718 1166.23 357.972 1105.44C357.819 1105.59 357.819 1105.74 357.667 1105.9C367.57 1174 373.665 1242.56 375.95 1311.27C403.679 1309.6 428.514 1304.11 447.102 1296.65Z" fill="#B64D69"/>
<path opacity="0.21" d="M420.591 1401.17C406.726 1388.67 388.595 1381.06 368.484 1380.9C325.214 1380.75 290.019 1415.64 289.867 1458.91C289.714 1475.21 294.742 1490.3 303.122 1502.79C317.139 1523.66 340.907 1537.38 367.874 1537.53C411.144 1537.68 446.339 1502.79 446.492 1459.52C446.492 1436.36 436.436 1415.49 420.591 1401.17Z" fill="black"/>
<path d="M384.634 1460.13C401.851 1438.95 409.316 1411.22 408.859 1383.95C394.994 1371.46 376.864 1363.84 356.752 1363.69C313.482 1363.53 278.288 1398.42 278.135 1441.69C277.983 1458 283.011 1473.08 291.39 1485.57C297.485 1487.86 303.579 1489.84 309.978 1490.91C337.708 1495.48 366.808 1481.92 384.634 1460.13Z" fill="#F1AFB1"/>
<path d="M408.859 1383.8C409.164 1411.07 401.698 1438.95 384.634 1459.98C366.808 1481.92 337.708 1495.32 309.826 1490.6C303.427 1489.53 297.333 1487.55 291.238 1485.27C305.255 1506.14 329.023 1519.85 355.991 1520.01C399.261 1520.16 434.456 1485.27 434.608 1442C434.76 1419.15 424.857 1398.27 408.859 1383.8Z" fill="#B64D69"/>
<path d="M371.989 1382.88L295.962 1450.99C296.571 1455.1 297.638 1459.22 299.009 1463.02L383.568 1387.3C379.912 1385.47 375.95 1383.95 371.989 1382.88Z" fill="white"/>
<path d="M383.568 1387.3L299.009 1463.02C300.989 1468.36 303.58 1473.23 306.779 1477.65L397.28 1396.6C393.167 1392.94 388.596 1389.74 383.568 1387.3Z" fill="#D7D7D7"/>
<path d="M356.6 1380.9C322.929 1380.75 295.352 1408.02 295.199 1441.69C295.199 1444.89 295.352 1447.94 295.809 1450.99L371.836 1382.88C367.113 1381.51 361.932 1380.9 356.6 1380.9Z" fill="#D7D7D7"/>
<path d="M415.563 1456.78L364.523 1502.48C389.51 1499.13 409.621 1480.7 415.563 1456.78Z" fill="white"/>
<path d="M417.391 1442.15C417.391 1435.29 416.324 1428.74 414.191 1422.5L330.699 1497.3C338.317 1500.81 347.001 1502.79 355.99 1502.94C358.885 1502.94 361.78 1502.79 364.522 1502.33L415.563 1456.62C416.781 1452.05 417.391 1447.18 417.391 1442.15Z" fill="#D7D7D7"/>
<path d="M397.28 1396.6L306.779 1477.65C312.873 1486.18 321.101 1492.89 330.699 1497.3L414.192 1422.5C410.992 1412.59 405.05 1403.6 397.28 1396.6Z" fill="white"/>
<mask id="mask0" mask-type="alpha" maskUnits="userSpaceOnUse" x="-770" y="703" width="1810" height="1831">
<path d="M589.688 1931.6C702.731 1880.78 798.689 1789.3 848.056 1683.14C903.702 1563.14 896.118 1405.13 837.045 1278.56C807.415 1214.8 760.837 1155.43 696.141 1118.46C608.941 1068.44 529.353 1074.86 433.574 1065.14C415.463 1063.18 397.577 1060.74 379.579 1056.5C263.927 1028.89 175.235 938.681 78.3074 869.794C42.6547 844.366 3.69471 821.132 -39.0273 813.225C-83.5528 805.038 -129.023 814.393 -167.243 833.592C-229.102 864.437 -273.57 918.382 -303.008 978.046C-337.673 1047.99 -345.623 1126.9 -378.898 1196.63C-414.089 1270.39 -447.703 1344.89 -479.889 1419.78C-543.735 1567.8 -601.155 1718.58 -648.394 1873.07C-652.832 1887.78 -657.083 1903.45 -651.676 1918.51C-646.907 1931.53 -635.675 1941.82 -624.63 1951.15C-523.8 2039.6 -411.017 2115.18 -291.204 2178.74C-176.802 2239.42 -40.3847 2319.61 91.4761 2298.37C125.709 2292.94 158.443 2277.8 178.778 2252.09C206.068 2217.23 201.759 2174.84 208.985 2133.3C216.136 2092.61 237.151 2055.33 270.376 2029.68C343.74 1972.7 446.922 1980.43 534.37 1952.8C552.896 1947.13 571.574 1939.79 589.688 1931.6Z" fill="url(#paint2_linear)"/>
</mask>
<g mask="url(#mask0)">
<ellipse cx="159.125" cy="1955.6" rx="83.0356" ry="88.3681" fill="#F6E4E4"/>
<ellipse cx="765.513" cy="1757.53" rx="83.0356" ry="88.3681" fill="#F6E4E4"/>
<ellipse cx="288.63" cy="1928.18" rx="83.0356" ry="88.3681" fill="#F6E4E4"/>
<ellipse cx="54.7592" cy="2157.48" rx="172.165" ry="183.592" fill="#F6E4E4"/>
<ellipse cx="437.942" cy="1928.18" rx="83.0356" ry="88.3681" fill="#F6E4E4"/>
<ellipse cx="544.593" cy="1896.18" rx="83.0356" ry="88.3681" fill="#F6E4E4"/>
<ellipse cx="206.356" cy="2043.97" rx="83.0356" ry="88.3681" fill="#F6E4E4"/>
<ellipse cx="658.1" cy="1807.81" rx="127.981" ry="135.599" fill="#F6E4E4"/>
<path d="M375.15 1771.06L334.468 1771.21L337.012 2495.24L377.694 2495.1L375.15 1771.06Z" fill="white"/>
<path d="M408.201 1770.91L390.069 1770.97L392.614 2495.01L410.745 2494.95L408.201 1770.91Z" fill="white"/>
<path d="M319.399 1771.3L301.268 1771.36L303.812 2495.4L321.943 2495.33L319.399 1771.3Z" fill="white"/>
</g>
<defs>
<linearGradient id="paint0_linear" x1="809.86" y1="1347.07" x2="-393.782" y2="2052.39" gradientUnits="userSpaceOnUse">
<stop stop-color="#D5806E"/>
<stop offset="1" stop-color="#F7455E"/>
</linearGradient>
<linearGradient id="paint1_linear" x1="809.86" y1="1347.07" x2="-393.782" y2="2052.39" gradientUnits="userSpaceOnUse">
<stop stop-color="#FFBBA6"/>
<stop offset="1" stop-color="#F7455E"/>
</linearGradient>
<linearGradient id="paint2_linear" x1="809.915" y1="1347.09" x2="-393.727" y2="2052.41" gradientUnits="userSpaceOnUse">
<stop stop-color="#D5806E"/>
<stop offset="1" stop-color="#F7455E"/>
</linearGradient>
</defs>
</svg>
