<svg width="320" height="738" viewBox="0 0 320 738" fill="none" xmlns="http://www.w3.org/2000/svg">
<path d="M201.998 533.273C233.191 519.248 259.67 494.006 273.292 464.71C288.648 431.597 286.555 387.996 270.254 353.071C262.078 335.476 249.225 319.093 231.373 308.892C207.311 295.088 185.349 296.861 158.919 294.18C153.922 293.637 148.986 292.963 144.02 291.795C112.107 284.174 87.6328 259.283 60.8864 240.274C51.0483 233.258 40.2975 226.846 28.5087 224.665C16.2223 222.406 3.67525 224.987 -6.87137 230.285C-23.9409 238.796 -36.2114 253.682 -44.3348 270.146C-53.9002 289.445 -56.0941 311.221 -65.2758 330.463C-74.9867 350.814 -84.2622 371.373 -93.1437 392.04C-110.761 432.882 -126.606 474.491 -139.641 517.119C-140.866 521.18 -142.039 525.505 -140.547 529.66C-139.231 533.251 -136.132 536.091 -133.084 538.667C-105.261 563.074 -74.139 583.93 -41.0776 601.468C-9.50902 618.213 28.1342 640.339 64.5202 634.478C73.9666 632.98 82.999 628.802 88.6106 621.71C96.141 612.09 94.9518 600.391 96.9459 588.93C98.919 577.7 104.718 567.414 113.886 560.337C134.131 544.612 162.603 546.747 186.733 539.122C191.846 537.557 196.999 535.532 201.998 533.273Z" fill="url(#paint0_linear)"/>
<path d="M201.998 533.273C233.191 519.248 259.67 494.006 273.292 464.71C288.648 431.597 286.555 387.996 270.254 353.071C262.078 335.476 249.225 319.093 231.373 308.892C207.311 295.088 185.349 296.861 158.919 294.18C153.922 293.637 148.986 292.963 144.02 291.795C112.107 284.174 87.6328 259.283 60.8864 240.274C51.0483 233.258 40.2975 226.846 28.5087 224.665C16.2223 222.406 3.67525 224.987 -6.87137 230.285C-23.9409 238.796 -36.2114 253.682 -44.3348 270.146C-53.9002 289.445 -56.0941 311.221 -65.2758 330.463C-74.9867 350.814 -84.2622 371.373 -93.1437 392.04C-110.761 432.882 -126.606 474.491 -139.641 517.119C-140.866 521.18 -142.039 525.505 -140.547 529.66C-139.231 533.251 -136.132 536.091 -133.084 538.667C-105.261 563.074 -74.139 583.93 -41.0776 601.468C-9.50902 618.213 28.1342 640.339 64.5202 634.478C73.9666 632.98 82.999 628.802 88.6106 621.71C96.141 612.09 94.9518 600.391 96.9459 588.93C98.919 577.7 104.718 567.414 113.886 560.337C134.131 544.612 162.603 546.747 186.733 539.122C191.846 537.557 196.999 535.532 201.998 533.273Z" fill="url(#paint1_linear)"/>
<path d="M133.893 485.367C131.286 484.232 128.637 483.223 125.905 482.424C123.088 481.583 119.977 480.742 117.874 478.851L116.697 486.755C116.655 486.839 116.655 486.923 116.655 487.007C116.655 489.445 125.82 491.421 137.13 491.505C138.181 491.505 139.19 491.505 140.199 491.463C139.905 490.496 139.484 489.571 138.854 488.731C137.634 487.133 135.742 486.208 133.893 485.367Z" fill="#F1AFB1"/>
<path d="M157.689 487.217C157.689 487.133 157.689 487.049 157.646 486.965L153.316 455.938L121.28 455.77L117.875 478.851C119.977 480.743 123.088 481.583 125.905 482.424C128.637 483.223 131.286 484.232 133.893 485.367C135.742 486.166 137.634 487.133 138.854 488.731C139.484 489.529 139.905 490.454 140.199 491.463C150.121 491.211 157.689 489.403 157.689 487.217Z" fill="#B64D69"/>
<path d="M104.463 403.217C105.303 420.118 105.472 437.061 101.814 453.499C100.342 460.1 98.2824 466.617 94.7929 472.376C92.3545 476.412 89.2013 480.028 85.4175 482.803L85.7538 496.046C95.4656 496.088 103.79 490.118 105.892 481.542L125.147 403.343L104.463 403.217Z" fill="#B64D69"/>
<path d="M94.8354 472.376C98.3249 466.617 100.427 460.1 101.856 453.499C105.514 437.061 105.346 420.076 104.505 403.217H102.992C92.1447 403.133 83.5681 411.373 83.8204 421.505L85.418 482.803C89.2438 480.028 92.397 476.37 94.8354 472.376Z" fill="#E5959D"/>
<path d="M182.073 436.009C182.83 426.55 183.586 417.09 184.385 407.673C181.106 405.108 176.902 403.553 172.235 403.553L150.037 403.469L167.905 479.187C172.109 475.025 175.262 469.685 177.28 464.136C180.517 455.139 181.316 445.511 182.073 436.009Z" fill="#E5959D"/>
<path d="M184.343 407.673C183.587 417.132 182.83 426.592 182.031 436.009C181.274 445.511 180.476 455.097 177.196 464.052C175.136 469.643 172.025 474.982 167.821 479.103L168.451 481.793C170.469 490.37 178.752 496.424 188.464 496.466L191.112 421.967C191.364 416.249 188.716 411.078 184.343 407.673Z" fill="#B64D69"/>
<path d="M129.226 469.391C121.575 468.635 115.31 466.869 112.199 464.599L112.788 471.073C112.956 473.47 116.908 475.572 122.836 476.875C123.593 475.403 124.518 474.016 125.653 472.797C126.746 471.578 128.007 470.485 129.226 469.391Z" fill="#F1AFB1"/>
<path d="M156.973 467.331C156.511 467.457 156.048 467.625 155.586 467.751C154.619 468.004 153.568 468.256 152.475 468.466C151.382 468.676 150.246 468.887 149.069 469.055C145.496 469.559 141.502 469.854 137.297 469.812C134.523 469.812 131.832 469.643 129.267 469.391C128.006 470.484 126.787 471.577 125.652 472.839C124.517 474.058 123.592 475.445 122.835 476.917C126.871 477.842 131.874 478.346 137.213 478.388C150.457 478.43 161.388 475.319 161.724 471.325L162.355 464.851C161.85 465.229 161.22 465.565 160.547 465.902C159.538 466.406 158.319 466.911 156.973 467.331Z" fill="#AE435F"/>
<path d="M133.935 464.515C136.625 460.731 137.424 455.938 138.097 451.356C142.385 421.842 144.025 391.908 143.016 362.1C141.292 362.184 139.568 362.268 137.76 362.226C128.049 362.184 119.178 360.376 112.913 357.812C107.742 376.058 105.976 394.262 107.448 411.079L112.199 464.557C115.31 466.827 121.574 468.593 129.226 469.35C130.95 467.878 132.631 466.365 133.935 464.515Z" fill="white"/>
<path d="M162.649 358.063C157.52 360.124 150.667 361.637 143.015 362.1C143.982 391.907 142.343 421.842 138.097 451.355C137.424 455.938 136.625 460.731 133.934 464.514C132.631 466.364 130.949 467.878 129.226 469.391C131.748 469.644 134.481 469.77 137.256 469.812C141.46 469.812 145.454 469.56 149.027 469.055C150.205 468.887 151.34 468.677 152.433 468.466C153.526 468.256 154.535 468.004 155.544 467.752C156.049 467.626 156.511 467.499 156.931 467.331C158.277 466.911 159.496 466.448 160.547 465.902C161.22 465.565 161.85 465.187 162.355 464.851L167.61 411.415C169.25 394.598 167.652 376.394 162.649 358.063Z" fill="#D2D3D3"/>
<path d="M143.016 362.099C142.385 343.138 140.703 324.177 137.971 305.426C126.325 322.033 118.001 339.943 112.956 357.853C119.22 360.418 128.049 362.225 137.803 362.267C139.568 362.267 141.292 362.183 143.016 362.099Z" fill="#F1AFB1"/>
<path d="M162.649 358.064C157.773 340.112 149.574 322.076 138.055 305.301C138.013 305.343 138.013 305.385 137.971 305.427C140.703 324.22 142.385 343.139 143.016 362.1C150.667 361.637 157.52 360.124 162.649 358.064Z" fill="#B64D69"/>
<path opacity="0.21" d="M155.334 386.904C151.509 383.456 146.506 381.354 140.956 381.312C129.016 381.27 119.304 390.898 119.262 402.838C119.22 407.336 120.608 411.498 122.92 414.946C126.788 420.706 133.346 424.49 140.788 424.532C152.728 424.574 162.44 414.946 162.482 403.006C162.482 396.616 159.707 390.856 155.334 386.904Z" fill="black"/>
<path d="M145.412 403.175C150.163 397.331 152.223 389.679 152.097 382.154C148.271 378.706 143.268 376.604 137.718 376.562C125.778 376.52 116.066 386.148 116.024 398.088C115.982 402.586 117.37 406.748 119.682 410.196C121.364 410.827 123.045 411.373 124.811 411.667C132.463 412.929 140.493 409.187 145.412 403.175Z" fill="#F1AFB1"/>
<path d="M152.097 382.112C152.181 389.637 150.121 397.331 145.412 403.133C140.493 409.187 132.463 412.887 124.769 411.583C123.004 411.289 121.322 410.743 119.64 410.112C123.508 415.872 130.067 419.656 137.508 419.698C149.448 419.74 159.16 410.112 159.202 398.172C159.244 391.866 156.511 386.106 152.097 382.112Z" fill="#B64D69"/>
<path d="M141.923 381.858L120.944 400.651C121.112 401.786 121.406 402.922 121.785 403.973L145.118 383.078C144.109 382.573 143.016 382.153 141.923 381.858Z" fill="white"/>
<path d="M145.118 383.078L121.785 403.973C122.331 405.444 123.046 406.789 123.929 408.009L148.902 385.642C147.767 384.633 146.506 383.75 145.118 383.078Z" fill="#D7D7D7"/>
<path d="M137.676 381.312C128.385 381.27 120.775 388.796 120.733 398.087C120.733 398.97 120.775 399.811 120.902 400.652L141.881 381.859C140.577 381.48 139.148 381.312 137.676 381.312Z" fill="#D7D7D7"/>
<path d="M153.947 402.249L139.863 414.862C146.758 413.937 152.307 408.85 153.947 402.249Z" fill="white"/>
<path d="M154.451 398.213C154.451 396.322 154.157 394.514 153.568 392.79L130.529 413.433C132.631 414.4 135.028 414.946 137.508 414.988C138.307 414.988 139.106 414.946 139.863 414.82L153.947 402.207C154.283 400.946 154.451 399.601 154.451 398.213Z" fill="#D7D7D7"/>
<path d="M148.902 385.643L123.929 408.009C125.61 410.363 127.881 412.213 130.529 413.433L153.568 392.79C152.686 390.057 151.046 387.577 148.902 385.643Z" fill="white"/>
<mask id="mask0" mask-type="alpha" maskUnits="userSpaceOnUse" x="-174" y="194" width="501" height="506">
<path d="M201.994 533.275C233.188 519.251 259.667 494.008 273.289 464.713C288.644 431.599 286.551 387.998 270.251 353.073C262.075 335.478 249.222 319.095 231.369 308.895C207.307 295.091 185.345 296.864 158.916 294.182C153.918 293.639 148.983 292.966 144.017 291.797C112.103 284.177 87.6293 259.286 60.8829 240.277C51.0448 233.26 40.2941 226.849 28.5053 224.667C16.2189 222.408 3.67183 224.989 -6.87478 230.287C-23.9443 238.799 -36.2148 253.684 -44.3382 270.148C-53.9036 289.448 -56.0975 311.224 -65.2793 330.466C-74.9902 350.817 -84.2656 371.376 -93.1471 392.043C-110.765 432.885 -126.61 474.493 -139.645 517.122C-140.869 521.182 -142.042 525.507 -140.55 529.663C-139.234 533.253 -136.135 536.094 -133.087 538.669C-105.264 563.077 -74.1424 583.933 -41.081 601.47C-9.51244 618.216 28.1308 640.342 64.5167 634.481C73.9632 632.983 82.9956 628.804 88.6071 621.712C96.1376 612.092 94.9484 600.394 96.9424 588.933C98.9156 577.702 104.715 567.416 113.883 560.34C134.127 544.614 162.599 546.749 186.73 539.124C191.842 537.56 196.996 535.535 201.994 533.275Z" fill="url(#paint2_linear)"/>
</mask>
<g mask="url(#mask0)">
<ellipse cx="83.184" cy="539.897" rx="22.913" ry="24.3845" fill="#F6E4E4"/>
<ellipse cx="250.512" cy="485.242" rx="22.913" ry="24.3845" fill="#F6E4E4"/>
<ellipse cx="118.92" cy="532.329" rx="22.913" ry="24.3845" fill="#F6E4E4"/>
<ellipse cx="54.3852" cy="595.603" rx="47.5077" ry="50.6609" fill="#F6E4E4"/>
<ellipse cx="160.122" cy="532.329" rx="22.913" ry="24.3845" fill="#F6E4E4"/>
<ellipse cx="189.551" cy="523.501" rx="22.913" ry="24.3845" fill="#F6E4E4"/>
<ellipse cx="96.2172" cy="564.281" rx="22.913" ry="24.3845" fill="#F6E4E4"/>
<ellipse cx="220.873" cy="499.116" rx="35.3155" ry="37.4176" fill="#F6E4E4"/>
<path d="M142.795 488.975L131.569 489.015L132.271 688.807L143.497 688.767L142.795 488.975Z" fill="white"/>
<path d="M151.915 488.933L146.912 488.951L147.614 688.743L152.617 688.725L151.915 488.933Z" fill="white"/>
<path d="M127.411 489.04L122.408 489.057L123.11 688.849L128.113 688.832L127.411 489.04Z" fill="white"/>
</g>
<defs>
<linearGradient id="paint0_linear" x1="262.768" y1="371.98" x2="-69.3679" y2="566.608" gradientUnits="userSpaceOnUse">
<stop stop-color="#D5806E"/>
<stop offset="1" stop-color="#F7455E"/>
</linearGradient>
<linearGradient id="paint1_linear" x1="262.768" y1="371.98" x2="-69.3679" y2="566.608" gradientUnits="userSpaceOnUse">
<stop stop-color="#FFBBA6"/>
<stop offset="1" stop-color="#F7455E"/>
</linearGradient>
<linearGradient id="paint2_linear" x1="262.764" y1="371.982" x2="-69.3713" y2="566.61" gradientUnits="userSpaceOnUse">
<stop stop-color="#D5806E"/>
<stop offset="1" stop-color="#F7455E"/>
</linearGradient>
</defs>
</svg>
